<svg width="40" height="40" viewBox="0 0 40 40" fill="none" xmlns="http://www.w3.org/2000/svg">
<g filter="url(#filter0_i_1575_12666)">
<g clip-path="url(#clip0_1575_12666)">
<rect width="40" height="40" rx="20" fill="#E6F1FA"/>
<g filter="url(#filter1_d_1575_12666)">
<path d="M28.8405 6.21037C28.2377 5.53742 26.6154 5.59667 25.3853 5.82404L25.0043 5.893L25.203 6.24151C25.203 6.24151 25.6819 6.12572 25.7651 6.11321C26.0293 6.07352 26.296 6.04555 26.5626 6.02955C27.1234 5.9972 27.7992 6.03849 28.1423 6.28235C28.3511 6.44945 28.4526 6.65604 28.4327 6.87336C28.4353 6.8983 28.4378 6.92199 28.4291 6.94811C28.4204 6.97423 28.4317 6.97305 28.4331 6.98676L28.4343 6.99798C28.4232 7.06596 28.4112 7.12646 28.396 7.19866C28.3126 7.55785 28.1789 7.91602 28.0381 8.2724C27.6534 9.24307 27.1815 10.209 26.6978 11.1724C26.2142 12.1358 25.722 13.0611 25.2086 14.0024C25.0297 14.3287 24.8499 14.6547 24.6694 14.9804C24.5809 15.1384 24.4742 15.2971 24.4019 15.4572C24.3983 15.4646 24.3938 15.4718 24.3882 15.4789C24.3707 15.5257 24.3865 15.572 24.432 15.6078C24.4775 15.6436 24.549 15.6658 24.6309 15.6696C24.7128 15.6734 24.7983 15.6584 24.8685 15.628C24.9388 15.5976 24.9881 15.5542 25.0056 15.5074C25.2427 15.0892 25.4728 14.6705 25.703 14.2518C26.2134 13.3108 26.7128 12.3672 27.2013 11.4209C27.7106 10.4195 28.2036 9.41478 28.6117 8.40636C28.7622 8.03382 28.9058 7.66075 28.9967 7.28565C29.0875 6.91055 29.1276 6.53069 28.8405 6.21037Z" fill="#6C7A8C"/>
<path d="M9.90241 9.46163C10.1238 8.51779 11.6052 7.85178 12.8149 7.52961L13.1889 7.42834L13.1758 7.86641C13.1758 7.86641 12.692 7.96452 12.6115 7.98919C12.3561 8.06753 12.1039 8.15875 11.8575 8.26194C11.3398 8.48025 10.7539 8.82382 10.562 9.22157C10.454 9.48241 10.4608 9.73481 10.5816 9.94363C10.5911 9.96979 10.6001 9.99465 10.6202 10.0169C10.6404 10.0392 10.6297 10.0431 10.6349 10.0575L10.6391 10.0693C10.6813 10.1324 10.7206 10.1877 10.7685 10.2532C11.0132 10.5758 11.3026 10.875 11.5974 11.1691C12.4015 11.9698 13.2816 12.7267 14.171 13.4758C15.0603 14.2249 15.9393 14.932 16.8448 15.6456C17.1596 15.8927 17.475 16.139 17.7909 16.3846C17.945 16.5034 18.1157 16.6147 18.2562 16.7428C18.2629 16.7485 18.2705 16.7537 18.2788 16.7583C18.3166 16.7974 18.3245 16.8509 18.3006 16.9071C18.2768 16.9633 18.2232 17.0176 18.1516 17.058C18.0801 17.0984 17.9964 17.1216 17.9191 17.1225C17.8417 17.1235 17.777 17.102 17.7392 17.063C17.3288 16.7499 16.9244 16.4333 16.52 16.1166C15.6173 15.4019 14.7232 14.6797 13.8376 13.9499C12.9072 13.1742 11.9899 12.3878 11.1469 11.5598C10.8357 11.2538 10.5305 10.9442 10.2715 10.609C10.0126 10.2737 9.79682 9.911 9.90241 9.46163Z" fill="#6C7A8C"/>
<path d="M28.4543 26.7253C26.5815 25.4039 24.1801 26.1407 22.0638 25.8969L21.9656 25.8841L21.8051 25.8548C21.6949 25.8327 21.5859 25.8051 21.4785 25.7723L21.3369 25.721L21.2709 25.6898C21.1767 25.645 21.0864 25.5929 21.0009 25.534L20.9669 25.5084C20.9159 25.4662 20.8631 25.4259 20.814 25.3838C20.718 25.3057 20.6266 25.2225 20.5402 25.1345C20.397 24.9886 20.2785 24.8216 20.1891 24.6397C20.0742 24.4047 20.0488 24.1378 20.1174 23.8864C20.2031 23.6137 20.3508 23.3631 20.5497 23.1533C20.8096 22.8995 21.0831 22.659 21.369 22.433C22.0287 21.8384 22.4456 21.0329 22.5433 20.1641C22.5716 19.915 22.5716 19.6636 22.5433 19.4145C23.0068 19.2713 23.4335 19.0338 23.7948 18.7177C24.1562 18.4017 24.4439 18.0144 24.6389 17.5818L26.338 13.4874L25.2977 13.0824L23.6175 17.1511C23.4708 17.4736 23.2469 17.7575 22.9645 17.9791C22.6821 18.2008 22.3493 18.3538 21.9937 18.4255C21.6381 18.4972 21.27 18.4855 20.9201 18.3913C20.5701 18.2972 20.2483 18.1233 19.9814 17.8842L16.217 14.5229L15.4618 15.3238L19.2168 18.6833C19.8438 19.2456 20.6665 19.5572 21.5201 19.5556H21.5824C21.6749 19.5556 21.7711 19.5556 21.8561 19.5391C21.9066 20.1742 21.7444 20.808 21.3936 21.3462C21.1691 21.6679 20.8917 21.9515 20.5723 22.1856C20.2882 22.4069 20.0345 22.6625 19.8172 22.9462C19.6053 23.2061 19.4657 23.5146 19.4118 23.8419C19.3579 24.1692 19.3915 24.5045 19.5095 24.8156C19.7983 25.4755 20.3271 26.0091 20.9952 26.3148C21.8995 26.7052 22.9511 26.6337 23.9177 26.6025C25.0164 26.5659 26.0793 26.5164 27.0912 26.8243C27.5662 26.9655 28.0023 27.2085 28.3674 27.5354C28.8132 27.9627 29.1484 28.4865 29.3454 29.0639C29.676 29.9455 29.7273 30.9029 29.4926 31.813C29.2763 32.6222 28.8999 33.3829 28.3844 34.0526C26.5928 36.4169 23.2871 37.3332 20.4553 36.4352C19.7001 36.1969 18.9846 35.8652 18.2597 35.572L15.6336 34.509L15.4675 34.443C15.4232 34.431 15.377 34.4276 15.3314 34.4331C15.2858 34.4385 15.2417 34.4525 15.2017 34.4745C15.1617 34.4965 15.1266 34.5259 15.0984 34.561C15.0701 34.5962 15.0493 34.6364 15.037 34.6794C15.0142 34.7661 15.0267 34.8581 15.0721 34.936C15.1175 35.0139 15.1922 35.0717 15.2806 35.0973C16.7531 35.6935 18.2251 36.2892 19.6964 36.8842C21.1043 37.4431 22.6482 37.597 24.1439 37.3276C25.6395 37.0583 27.0237 36.3769 28.1315 35.3649C29.4077 34.1736 30.3214 32.471 30.3459 30.7317C30.3762 29.2362 29.7173 27.6179 28.4543 26.7253Z" fill="#0071CE"/>
<path d="M18.5908 34.3645C19.2633 32.7878 18.5303 30.9645 16.9537 30.292C15.377 29.6195 13.5537 30.3525 12.8812 31.9292C12.2087 33.5058 12.9417 35.3291 14.5184 36.0016C16.095 36.6741 17.9183 35.9411 18.5908 34.3645Z" fill="#9DA7B3"/>
<g opacity="0.3">
<path d="M13.6591 33.664C13.7373 34.0699 13.934 34.4435 14.2245 34.7376C14.5149 35.0316 14.8861 35.2329 15.291 35.3161C15.6958 35.3992 16.1163 35.3604 16.4991 35.2047C16.882 35.0489 17.21 34.783 17.4418 34.4408C17.6736 34.0986 17.7987 33.6953 17.8013 33.282C17.8039 32.8687 17.6839 32.4639 17.4565 32.1188C17.229 31.7736 16.9044 31.5037 16.5235 31.3431C16.1427 31.1825 15.7227 31.1384 15.3168 31.2164C15.0472 31.268 14.7903 31.3723 14.561 31.5233C14.3316 31.6743 14.1343 31.8691 13.9803 32.0964C13.8264 32.3238 13.7187 32.5792 13.6636 32.8482C13.6085 33.1172 13.607 33.3945 13.6591 33.664Z" fill="black"/>
</g>
<path d="M13.6844 33.4012C13.7626 33.8071 13.9593 34.1807 14.2498 34.4747C14.5403 34.7688 14.9114 34.9701 15.3163 35.0533C15.7212 35.1364 16.1416 35.0976 16.5244 34.9418C16.9073 34.786 17.2353 34.5202 17.4671 34.178C17.6989 33.8358 17.824 33.4325 17.8266 33.0192C17.8292 32.6059 17.7092 32.2011 17.4818 31.8559C17.2543 31.5108 16.9297 31.2409 16.5488 31.0803C16.168 30.9197 15.7481 30.8756 15.3422 30.9536C14.7979 31.0587 14.3176 31.3755 14.0068 31.8344C13.696 32.2933 13.58 32.8569 13.6844 33.4012Z" fill="#F3F4F5"/>
</g>
</g>
</g>
<defs>
<filter id="filter0_i_1575_12666" x="0" y="0" width="40" height="42" filterUnits="userSpaceOnUse" color-interpolation-filters="sRGB">
<feFlood flood-opacity="0" result="BackgroundImageFix"/>
<feBlend mode="normal" in="SourceGraphic" in2="BackgroundImageFix" result="shape"/>
<feColorMatrix in="SourceAlpha" type="matrix" values="0 0 0 0 0 0 0 0 0 0 0 0 0 0 0 0 0 0 127 0" result="hardAlpha"/>
<feOffset dy="2"/>
<feGaussianBlur stdDeviation="1"/>
<feComposite in2="hardAlpha" operator="arithmetic" k2="-1" k3="1"/>
<feColorMatrix type="matrix" values="0 0 0 0 0 0 0 0 0 0 0 0 0 0 0 0 0 0 0.25 0"/>
<feBlend mode="normal" in2="shape" result="effect1_innerShadow_1575_12666"/>
</filter>
<filter id="filter1_d_1575_12666" x="7.875" y="5.66797" width="24.4722" height="35.7888" filterUnits="userSpaceOnUse" color-interpolation-filters="sRGB">
<feFlood flood-opacity="0" result="BackgroundImageFix"/>
<feColorMatrix in="SourceAlpha" type="matrix" values="0 0 0 0 0 0 0 0 0 0 0 0 0 0 0 0 0 0 127 0" result="hardAlpha"/>
<feOffset dy="2"/>
<feGaussianBlur stdDeviation="1"/>
<feComposite in2="hardAlpha" operator="out"/>
<feColorMatrix type="matrix" values="0 0 0 0 0 0 0 0 0 0 0 0 0 0 0 0 0 0 0.25 0"/>
<feBlend mode="normal" in2="BackgroundImageFix" result="effect1_dropShadow_1575_12666"/>
<feBlend mode="normal" in="SourceGraphic" in2="effect1_dropShadow_1575_12666" result="shape"/>
</filter>
<clipPath id="clip0_1575_12666">
<rect width="40" height="40" rx="20" fill="white"/>
</clipPath>
</defs>
</svg>
