<svg width="610" height="374" viewBox="0 0 610 374" fill="none" xmlns="http://www.w3.org/2000/svg">
<g clip-path="url(#clip0_1525_13415)">
<path d="M90.5593 133.373C114.494 133.373 133.898 113.975 133.898 90.0477C133.898 66.12 114.494 46.7228 90.5593 46.7228C66.624 46.7228 47.2207 66.12 47.2207 90.0477C47.2207 113.975 66.624 133.373 90.5593 133.373Z" fill="#A5C1F8"/>
<path d="M492.096 18.7512C493.98 10.7726 489.037 2.77808 481.055 0.894946C473.074 -0.988185 465.077 3.95319 463.193 11.9318C461.31 19.9105 466.253 27.905 474.234 29.7881C482.215 31.6713 490.212 26.7299 492.096 18.7512Z" fill="#A5C1F8"/>
<path d="M19.9562 372.335C19.9562 372.335 8.04043 38.715 303.15 38.715C598.26 38.715 598.976 372.338 598.976 372.338H19.9562V372.335Z" fill="#A5C1F8"/>
<path d="M583 372.804H42.5585C42.2781 372.804 42.0518 372.578 42.0518 372.298C42.0518 372.017 42.2781 371.791 42.5585 371.791C51.9607 371.791 65.5015 363.827 73.5928 359.072C75.326 358.055 76.9983 356.782 78.5253 355.316C74.5219 354.306 70.613 352.749 67.2988 350.166C63.417 347.14 60.775 342.239 60.4068 337.372C60.123 333.634 61.1906 330.374 63.4913 327.939C66.3089 324.957 70.5556 323.934 75.1368 325.133C80.6132 326.565 85.12 330.847 86.3532 335.785C88.0762 342.682 85.1707 349.625 80.5017 354.735C84.0592 355.499 87.6437 355.884 90.8769 356.232C107.137 357.981 123.999 358.886 135.837 349.308C149.53 338.23 150.635 318.071 149.79 297.938L144.908 181.659C144.165 163.982 143.324 143.944 151.253 126.55C157.598 112.632 169.733 101.446 185.426 95.0563C200.514 88.9128 217.751 87.876 232.714 92.2058C247.474 96.4815 261.089 105.421 272.089 118.063C276.934 123.632 281.144 129.749 284.64 136.264C285.65 136.193 286.664 136.152 287.684 136.145C308.708 136.003 326.604 148.253 343.918 160.104C355.976 168.355 368.442 176.89 382.068 181.453C399.966 187.448 420.23 186.245 437.383 178.359C437.22 177.444 437.068 176.525 436.927 175.606C434.393 158.99 436.541 145.605 443.315 135.824C443.612 135.396 443.923 134.97 444.244 134.561C450.4 126.672 459.383 127.54 465.123 131.684C470.876 135.838 474.532 144.109 468.961 152.448C462.268 162.472 453.329 170.811 443.109 176.566C441.609 177.41 440.075 178.204 438.518 178.94C444.008 208.492 461.67 236.105 486.269 253.35C497.421 261.169 510.016 267.049 522.198 272.733C527.117 275.029 532.205 277.404 537.134 279.876C551.983 287.323 570.449 298.124 581.551 315.69C591.628 331.634 595.703 356.998 583.399 372.602C583.304 372.723 583.155 372.794 583 372.794V372.804ZM49.2951 371.791H582.753C594.581 356.535 590.544 331.823 580.692 316.24C569.723 298.884 551.408 288.178 536.678 280.788C531.763 278.322 526.681 275.951 521.769 273.658C509.549 267.954 496.911 262.057 485.684 254.188C472.954 245.261 461.778 233.38 453.366 219.823C445.643 207.377 440.217 193.473 437.568 179.389C427.599 183.928 416.599 186.249 405.622 186.249C397.514 186.249 389.416 184.985 381.743 182.415C367.983 177.805 355.456 169.233 343.341 160.942C325.364 148.638 308.367 137.023 287.688 137.162C286.843 137.169 285.998 137.196 285.157 137.25C289.005 144.616 291.948 152.472 293.874 160.597C297.411 175.542 296.816 188.349 292.103 198.664C287.079 209.66 274.799 219.789 261.052 217.874C253.596 216.837 247.292 212.498 242.819 205.324C236.846 195.739 235.281 182.561 238.842 171.746C245.15 152.576 263.552 138.233 283.566 136.358C272.201 115.334 253.734 99.3523 232.433 93.1852C200.842 84.0359 164.838 99.1969 152.179 126.972C144.351 144.146 145.185 164.053 145.925 181.615L150.807 297.898C151.662 318.294 150.52 338.733 136.479 350.095C124.34 359.916 107.242 359.011 90.7722 357.238C87.3262 356.866 83.4849 356.454 79.6875 355.593C77.9848 357.309 76.0861 358.788 74.1131 359.947C67.7008 363.719 57.9 369.481 49.3019 371.794L49.2951 371.791ZM71.4712 325.649C68.613 325.649 66.0724 326.673 64.2244 328.628C61.5724 331.435 61.2345 334.887 61.4169 337.291C61.7649 341.881 64.2582 346.508 67.9204 349.362C71.2583 351.966 75.2651 353.496 79.3598 354.472C84.0525 349.554 87.0491 342.756 85.3667 336.025C84.218 331.435 80.0051 327.446 74.8766 326.105C73.7111 325.801 72.5658 325.649 71.4712 325.649ZM284.083 137.324C264.295 138.996 246.031 153.127 239.802 172.057C236.332 182.598 237.856 195.445 243.677 204.784C246.68 209.603 252.157 215.608 261.191 216.868C274.444 218.715 286.309 208.894 291.178 198.238C295.796 188.133 296.37 175.546 292.884 160.827C290.921 152.532 287.927 144.633 284.083 137.324ZM455.812 129.61C452.048 129.61 448.156 131.197 445.042 135.19C444.734 135.585 444.433 135.993 444.146 136.405C437.525 145.963 435.43 159.105 437.927 175.455C438.052 176.275 438.187 177.096 438.332 177.913C439.785 177.221 441.214 176.478 442.612 175.688C452.69 170.01 461.511 161.78 468.116 151.891C473.312 144.109 469.9 136.388 464.528 132.511C462.076 130.742 458.991 129.61 455.815 129.61H455.812Z" fill="white"/>
<path d="M173.719 372.298L131.705 372.338C131.705 372.338 115.269 354.617 99.6975 327.97L112.417 322.671L93.569 316.764C86.4473 302.802 79.8323 286.188 75.3491 267.11L84.5013 265.674L73.2511 257.16C69.9876 239.648 68.5855 220.252 70.1565 199.099C70.1565 199.099 77.2377 203.065 87.7852 212.217L93.3596 231.286L96.9644 220.742C120.877 244.414 158.033 296.537 173.719 372.304V372.298Z" fill="#00447C"/>
<path d="M133.147 372.298H102.187C102.187 372.298 90.0182 366.766 77.1768 353.766L85.9912 349.007L72.0788 348.241C66.0956 341.287 60.3117 332.755 55.913 322.529L62.4029 320.455L53.7913 317.162C50.3622 307.662 48.1527 296.834 47.9736 284.598C47.9736 284.598 53.3082 285.878 61.457 289.63L66.6429 299.698L68.5821 293.21C87.2344 303.376 117.191 331.401 133.151 372.294L133.147 372.298Z" fill="#4C9CDD"/>
<path d="M157.637 372.298H188.597C188.597 372.298 200.766 366.766 213.608 353.766L204.793 349.007L218.706 348.241C224.689 341.287 230.473 332.755 234.872 322.529L228.382 320.455L236.993 317.162C240.422 307.662 242.632 296.834 242.811 284.598C242.811 284.598 237.476 285.878 229.328 289.63L224.142 299.698L222.202 293.21C203.55 303.376 173.594 331.401 157.634 372.294L157.637 372.298Z" fill="#4C9CDD"/>
<path d="M496.86 372.298L454.845 372.338C454.845 372.338 438.409 354.617 422.838 327.97L435.558 322.671L416.71 316.764C409.588 302.802 402.973 286.188 398.49 267.11L407.642 265.674L396.392 257.16C393.128 239.648 391.726 220.252 393.297 199.099C393.297 199.099 400.378 203.065 410.926 212.217L416.5 231.286L420.105 220.742C444.018 244.414 481.174 296.537 496.86 372.304V372.298Z" fill="#00447C"/>
<path d="M456.285 372.298H425.325C425.325 372.298 413.155 366.766 400.314 353.766L409.128 349.007L395.216 348.241C389.233 341.287 383.449 332.755 379.05 322.529L385.54 320.455L376.928 317.162C373.499 307.662 371.29 296.834 371.111 284.598C371.111 284.598 376.445 285.878 384.594 289.63L389.78 299.698L391.719 293.21C410.372 303.376 440.328 331.401 456.288 372.294L456.285 372.298Z" fill="#4C9CDD"/>
<path d="M480.778 372.298H511.738C511.738 372.298 523.907 366.766 536.749 353.766L527.934 349.007L541.847 348.241C547.83 341.287 553.614 332.755 558.013 322.529L551.523 320.455L560.134 317.162C563.563 307.662 565.773 296.834 565.952 284.598C565.952 284.598 560.617 285.878 552.469 289.63L547.283 299.698L545.344 293.21C526.691 303.376 496.735 331.401 480.775 372.294L480.778 372.298Z" fill="#4C9CDD"/>
<path d="M268.805 70.8912C259.129 70.8912 251.291 78.7301 251.291 88.3995C251.291 78.7267 243.45 70.8912 233.777 70.8912C243.453 70.8912 251.291 63.0523 251.291 53.3829C251.291 63.0557 259.133 70.8912 268.805 70.8912Z" fill="white"/>
<path d="M410.72 67.9629C405.402 67.9629 401.094 72.2725 401.094 77.5851C401.094 72.2691 396.784 67.9629 391.469 67.9629C396.787 67.9629 401.094 63.6534 401.094 58.3408C401.094 63.6568 405.405 67.9629 410.72 67.9629Z" fill="white"/>
<path d="M355.691 114.942C355.465 114.942 355.235 114.878 355.032 114.74C351.853 112.598 349.64 111.643 349.62 111.632C349.019 111.376 348.742 110.68 348.999 110.082C349.255 109.481 349.948 109.204 350.549 109.457C350.647 109.498 352.972 110.498 356.357 112.777C356.897 113.142 357.043 113.875 356.678 114.419C356.448 114.757 356.076 114.942 355.695 114.942H355.691Z" fill="#002A4D"/>
<path d="M299.204 114.611C298.724 114.611 298.271 114.314 298.095 113.838C297.869 113.226 298.183 112.544 298.795 112.321C300.893 111.548 303.264 111.031 305.846 110.781C306.498 110.72 307.072 111.193 307.136 111.845C307.2 112.494 306.724 113.071 306.072 113.135C303.694 113.365 301.521 113.838 299.612 114.54C299.477 114.591 299.339 114.615 299.204 114.615V114.611Z" fill="#002A4D"/>
<path d="M425.051 131.042L384.942 372.318H271.203L231.095 131.042L241.612 128.594L300.461 114.895L328.073 115.145L354.276 114.895L423.507 130.691L425.051 131.042Z" fill="#0066B9"/>
<path d="M423.507 130.691C410.412 132.332 398.476 133.089 398.476 133.089C322.15 109.93 244.078 131.403 244.078 131.403C244.078 131.403 243.139 130.35 241.612 128.594L300.461 114.895L328.073 115.145L354.276 114.895L423.507 130.691Z" fill="#00447C"/>
<path d="M444.237 137.263C444.237 137.263 497.136 166.373 515.049 191.598L455.676 286.779C455.676 286.779 439.541 340.372 444.237 372.321H379.33C379.33 372.321 398.114 217.922 398.114 217.199C398.114 216.476 444.233 137.267 444.233 137.267L444.237 137.263Z" fill="white"/>
<path d="M206.124 137.263C206.124 137.263 153.225 166.373 135.312 191.598L194.685 286.779C194.685 286.779 210.821 340.372 206.124 372.321H271.031C271.031 372.321 252.247 217.922 252.247 217.199C252.247 216.476 206.128 137.267 206.128 137.267L206.124 137.263Z" fill="white"/>
<path d="M300.46 114.895C300.46 114.895 318.035 136.581 326.843 171.972C326.843 171.972 338.414 136.307 352.911 114.895H300.46Z" fill="#B36D6B"/>
<path d="M343.306 53.9132C344.58 53.7375 345.742 53.0452 346.664 52.1502C347.586 51.2552 348.299 50.1677 348.951 49.0599C350.32 46.743 351.488 44.2809 352.124 41.6668C352.759 39.0527 352.847 36.2664 352.083 33.6827C351.765 32.6087 351.279 31.5449 350.438 30.8086C349.597 30.0689 348.201 29.6062 347.184 30.0757C344.752 24.5301 340.215 20.0111 334.84 17.2181C329.464 14.4284 323.292 13.3172 317.241 13.6313C315.045 13.7461 312.728 14.0974 311.042 15.5091C309.481 16.8162 308.701 18.873 308.515 20.9028C308.332 22.9326 308.454 25.0704 308.805 27.0766C307.44 26.1411 305.663 25.8236 304.059 26.2323C302.454 26.6409 301.042 27.7622 300.288 29.2381C299.694 30.4033 299.504 31.7306 299.437 33.0377C299.234 37.0905 300.167 41.1906 302.096 44.7605C303.934 48.1548 305.43 51.7483 308.552 54.0179C311.674 56.2875 315.434 57.5742 319.248 58.172C323.062 58.7732 326.951 58.7124 330.806 58.4895C333.093 58.3578 335.397 58.1653 337.59 57.5033C339.782 56.8413 341.87 55.6964 343.302 53.9098L343.306 53.9132Z" fill="#002A4D"/>
<path d="M345.282 62.4072L352.911 114.895C339.904 120.674 326.684 121.153 326.684 121.153C326.684 121.153 316.866 120.799 305.826 116.999C304.059 116.391 302.258 115.692 300.461 114.895L308.086 62.4072C308.025 62.4039 307.961 62.4005 307.9 62.3971C296.146 61.6676 290.619 52.2616 297.248 45.6352C303.812 39.0764 308.505 48.0399 308.647 48.3169C308.647 48.3169 308.65 48.3169 308.65 48.3236L310.687 35.2532L311.258 31.5887H342.11L344.722 48.3236C344.722 48.3236 349.458 38.975 356.12 45.6352C362.783 52.2954 357.164 61.7655 345.282 62.4072Z" fill="#B36D6B"/>
<path d="M307.944 61.6439C309.231 61.958 310.089 62.0897 310.089 62.0897L305.163 121.552C304.018 120.072 301.984 116.793 300.461 114.895L308.086 62.4072C308.025 62.4038 307.961 62.4005 307.9 62.3971C296.146 61.6676 290.619 52.2616 297.248 45.6352C303.812 39.0763 308.505 48.0399 308.647 48.3168C307.302 46.3512 296.724 44.1627 296.363 52.0556C296.089 58.0065 304.015 60.6847 307.944 61.6439Z" fill="#8C5554"/>
<path d="M315.265 31.5887L310.086 48.9248L308.646 48.3236L311.255 31.5887C313.288 31.6023 315.265 31.5887 315.265 31.5887Z" fill="#8C5554"/>
<path d="M318.12 50.5695C319.206 50.5695 320.086 49.384 320.086 47.9217C320.086 46.4593 319.206 45.2738 318.12 45.2738C317.034 45.2738 316.153 46.4593 316.153 47.9217C316.153 49.384 317.034 50.5695 318.12 50.5695Z" fill="#002A4D"/>
<path d="M335.701 50.5695C336.787 50.5695 337.667 49.384 337.667 47.9217C337.667 46.4593 336.787 45.2738 335.701 45.2738C334.615 45.2738 333.735 46.4593 333.735 47.9217C333.735 49.384 334.615 50.5695 335.701 50.5695Z" fill="#002A4D"/>
<path d="M312.88 44.0613C312.701 44.0613 312.521 44.0208 312.349 43.9364C311.765 43.6425 311.532 42.9333 311.822 42.349C312.461 41.0791 313.684 40.0592 315.268 39.4715C316.576 38.9885 317.903 38.8501 319.19 38.7183C319.846 38.6508 320.42 39.1236 320.488 39.7721C320.555 40.4205 320.082 41.0014 319.434 41.069C318.292 41.1872 317.113 41.3088 316.089 41.6904C315.498 41.91 314.434 42.4233 313.937 43.4095C313.731 43.8215 313.312 44.0613 312.88 44.0613Z" fill="#002A4D"/>
<path d="M339.833 44.0613C339.4 44.0613 338.982 43.8215 338.775 43.4095C338.279 42.4233 337.215 41.91 336.623 41.6904C335.596 41.3122 334.417 41.1906 333.279 41.069C332.63 41.0014 332.157 40.4205 332.225 39.7721C332.292 39.1236 332.873 38.6508 333.522 38.7183C334.809 38.8534 336.137 38.9885 337.444 39.4715C339.029 40.0558 340.252 41.0791 340.89 42.349C341.184 42.9333 340.948 43.6425 340.363 43.9364C340.194 44.0208 340.012 44.0613 339.833 44.0613Z" fill="#002A4D"/>
<path d="M324.701 57.2669C324.356 57.2669 324.015 57.1182 323.782 56.8278C323.37 56.3212 323.447 55.5748 323.954 55.1661C325.752 53.7105 325.86 47.7596 325.508 44.3518C325.441 43.7033 325.914 43.1224 326.562 43.0549C327.211 42.9873 327.792 43.4602 327.86 44.1086C327.968 45.1421 328.816 54.2711 325.444 57.0034C325.224 57.1824 324.961 57.2669 324.701 57.2669Z" fill="#002A4D"/>
<path d="M305.616 55.9464C305.346 55.9464 305.072 55.8552 304.852 55.6661L299.917 51.4714C299.42 51.0492 299.359 50.3028 299.781 49.8063C300.204 49.3099 300.95 49.2491 301.447 49.6712L306.383 53.8659C306.88 54.2881 306.94 55.0345 306.518 55.531C306.285 55.8045 305.95 55.9464 305.616 55.9464Z" fill="#002A4D"/>
<path d="M347.222 56.3652C346.938 56.3652 346.651 56.2639 346.425 56.0545C345.941 55.6154 345.908 54.8656 346.35 54.3861L352.07 48.1278C352.509 47.6448 353.259 47.6111 353.739 48.0535C354.222 48.4925 354.256 49.2423 353.813 49.7219L348.093 55.9802C347.86 56.2369 347.539 56.3652 347.222 56.3652Z" fill="#002A4D"/>
<path d="M340.935 73.3534C328.495 84.5021 317.813 77.2576 313.589 73.377C312.353 72.2388 311.576 70.6886 311.38 69.0202L310.667 63.0254C310.295 59.8878 312.336 56.9765 315.414 56.2436C320.079 55.1291 327.85 54.3658 338.867 56.7806C341.955 57.4561 344.056 60.3235 343.749 63.4678L343.225 68.8007C343.053 70.5501 342.245 72.1848 340.938 73.3567L340.935 73.3534Z" fill="#002A4D"/>
<path d="M337.647 61.796C337.39 64.812 335.823 70.8913 327.326 70.8913C318.829 70.8913 317.444 65.0248 317.214 61.9581C317.802 62.7316 318.728 63.228 319.772 63.228H334.975C335.86 63.228 336.664 62.8666 337.245 62.2857C337.394 62.1371 337.529 61.9716 337.647 61.796Z" fill="#F2826F"/>
<path d="M337.647 61.796C337.529 61.9716 337.394 62.1371 337.245 62.2857C336.664 62.8666 335.86 63.228 334.975 63.228H319.772C318.728 63.228 317.802 62.7315 317.214 61.9581C317.133 60.874 317.214 60.1377 317.214 60.1377H337.671C337.671 60.1377 337.728 60.7997 337.647 61.796Z" fill="white"/>
<path d="M239.963 207.165L202.392 136.902C202.392 136.902 234.183 119.728 257.784 116.999C257.784 116.999 272.717 160.496 264.045 197.093C264.045 197.093 294.109 321.229 283.17 372.321H263.082C263.082 372.321 255.001 235.288 239.96 207.165H239.963Z" fill="#E0E0E0"/>
<path d="M410.398 207.165L447.97 136.902C447.97 136.902 416.179 119.728 392.577 116.999C392.577 116.999 377.644 160.496 386.317 197.093C386.317 197.093 356.252 321.229 367.192 372.321H387.28C387.28 372.321 395.361 235.288 410.402 207.165H410.398Z" fill="#E0E0E0"/>
<path d="M294.315 188.383C304.673 188.383 313.069 179.989 313.069 169.635C313.069 159.281 304.673 150.888 294.315 150.888C283.958 150.888 275.562 159.281 275.562 169.635C275.562 179.989 283.958 188.383 294.315 188.383Z" fill="#002A4D"/>
<path d="M294.315 178.68C299.312 178.68 303.362 174.63 303.362 169.635C303.362 164.64 299.312 160.591 294.315 160.591C289.318 160.591 285.268 164.64 285.268 169.635C285.268 174.63 289.318 178.68 294.315 178.68Z" fill="#E0E0E0"/>
<path d="M290.738 155.309C290.265 155.309 289.815 155.021 289.633 154.552C289.329 153.762 282.217 135.065 288.025 122.217C290.16 117.495 293.782 114.165 298.792 112.318C299.403 112.092 300.086 112.406 300.309 113.017C300.535 113.628 300.221 114.311 299.609 114.534C295.217 116.151 292.045 119.063 290.18 123.186C284.775 135.142 291.765 153.512 291.839 153.698C292.075 154.305 291.771 154.991 291.163 155.227C291.021 155.281 290.88 155.309 290.738 155.309Z" fill="#002A4D"/>
<path d="M346.015 260.487C345.792 260.487 345.566 260.422 345.367 260.291C344.823 259.933 344.671 259.2 345.029 258.653C372.242 217.341 383.82 182.243 379.438 154.339C375.898 131.795 362.627 119.853 355.032 114.74C354.492 114.375 354.347 113.642 354.712 113.098C355.076 112.558 355.813 112.413 356.353 112.777C364.269 118.107 378.097 130.542 381.776 153.971C386.253 182.476 374.553 218.134 347.005 259.953C346.779 260.297 346.401 260.487 346.015 260.487Z" fill="#002A4D"/>
<path d="M338.279 322.971C338.1 322.971 337.921 322.931 337.752 322.846L333.177 320.56C332.593 320.266 332.356 319.557 332.647 318.972C332.937 318.388 333.647 318.152 334.235 318.442L337.934 320.29C341.471 315.554 359.752 289.991 355.755 272.817C354.482 267.349 350.995 263.209 345.387 260.51C339.897 257.869 334.569 257.737 329.552 260.125C313.238 267.886 304.271 299.563 302.771 305.284L305.599 306.777C306.177 307.081 306.396 307.797 306.092 308.374C305.788 308.952 305.072 309.171 304.494 308.867L300.846 306.942C300.369 306.689 300.123 306.149 300.248 305.622C300.623 304.048 309.653 266.974 328.539 257.991C334.231 255.282 340.248 255.414 346.414 258.379C352.701 261.402 356.617 266.083 358.059 272.284C362.711 292.281 340.174 321.289 339.211 322.515C338.981 322.809 338.633 322.968 338.279 322.968V322.971Z" fill="#002A4D"/>
<path d="M308.936 306.575L306.319 305.345C305.553 304.984 304.639 305.313 304.278 306.08L303.047 308.696C302.687 309.462 303.016 310.376 303.783 310.736L306.4 311.966C307.166 312.327 308.08 311.998 308.44 311.232L309.671 308.615C310.032 307.849 309.703 306.936 308.936 306.575Z" fill="#002A4D"/>
<path d="M312.231 305.73L310.489 304.911C309.481 304.437 308.279 304.869 307.805 305.877L305.139 311.543C304.665 312.551 305.098 313.752 306.106 314.226L307.848 315.045C308.856 315.519 310.058 315.087 310.532 314.079L313.198 308.413C313.672 307.405 313.239 306.204 312.231 305.73Z" fill="#002A4D"/>
<path d="M329.614 320.349L332.089 321.843C332.814 322.281 333.757 322.048 334.195 321.323L335.69 318.848C336.128 318.123 335.895 317.18 335.169 316.743L332.694 315.248C331.968 314.811 331.026 315.044 330.588 315.769L329.093 318.244C328.655 318.969 328.888 319.911 329.614 320.349Z" fill="#002A4D"/>
<path d="M326.251 320.85L327.899 321.845C328.853 322.421 330.093 322.115 330.668 321.161L333.906 315.801C334.481 314.848 334.175 313.608 333.221 313.033L331.573 312.038C330.619 311.462 329.379 311.768 328.804 312.722L325.566 318.082C324.991 319.036 325.297 320.275 326.251 320.85Z" fill="#002A4D"/>
<path d="M343.911 232.394C344.282 234.498 345.461 236.781 347.867 239.185C347.867 239.185 347.647 239.385 347.316 239.746C346.147 241.013 343.596 244.279 344.15 248.132C344.495 250.547 346.063 253.191 349.955 255.718C361.837 263.421 387.043 280.916 416.587 274.658C416.587 274.658 480.068 333.704 527.63 339.767C543.242 341.76 557.137 338.041 566.509 324.656C572.705 315.808 575.266 306.213 575.215 296.354C575.185 290.413 574.208 284.378 572.506 278.349C572.506 278.349 572.502 278.343 572.502 278.339C559.728 233.12 506.18 188.383 506.18 188.383L501.102 194.78L467.541 237.048L466.801 237.98L455.483 233.484L437.662 223.856C437.662 223.856 433.287 200.903 426.182 196.931C419.523 193.206 404.195 166.653 397.239 166.298C396.773 166.275 396.341 166.369 395.955 166.596C390.611 169.737 391.844 184.621 392.253 188.44C392.313 189.011 392.357 189.335 392.357 189.335C392.357 189.335 364.779 172.114 356.097 183.087C355.363 184.016 354.826 184.948 354.458 185.874C351.593 192.99 358.384 199.62 358.384 199.62C358.384 199.62 358.326 199.636 358.218 199.674C356.769 200.157 346.407 204 349.323 214.318V214.325C349.769 215.902 350.526 217.631 351.674 219.522C351.688 219.549 351.705 219.576 351.722 219.603C351.722 219.603 342.569 224.815 343.911 232.394Z" fill="#B36D6B"/>
<path d="M354.458 185.874C364.779 181.118 395.074 191.595 395.074 191.595C395.074 191.595 393.922 190.305 392.253 188.441C392.313 189.011 392.357 189.336 392.357 189.336C392.357 189.336 364.779 172.114 356.097 183.087C355.363 184.016 354.826 184.948 354.458 185.874Z" fill="#8C5554"/>
<path d="M349.323 214.318C353.444 199.954 375.678 206.813 376.732 207.148L359.789 200.741C359.789 200.741 359.157 200.329 358.218 199.674C356.769 200.157 346.407 204 349.323 214.318Z" fill="#8C5554"/>
<path d="M343.911 232.394C343.985 232.279 344.059 232.164 344.134 232.042C349.769 222.886 368.671 227.743 369.61 227.99C359.019 224.784 352.711 219.604 352.711 219.604C352.711 219.604 352.319 219.573 351.674 219.522C351.688 219.549 351.705 219.576 351.722 219.604C351.722 219.604 342.569 224.815 343.911 232.394Z" fill="#8C5554"/>
<path d="M344.15 248.132C350.167 244.549 364.479 248.818 364.793 248.912L348.559 239.746H347.316C346.147 241.013 343.596 244.279 344.15 248.132Z" fill="#8C5554"/>
<path d="M397.239 166.298C400.922 175.218 413.908 194.803 422.929 201.143C433.206 208.367 432.723 228.108 432.723 228.108C432.723 228.108 538.813 275.617 539.826 275.617L468.044 238.5C468.044 238.5 467.869 237.986 467.541 237.048L466.801 237.98L455.483 233.484L437.662 223.856C437.662 223.856 433.287 200.903 426.182 196.931C419.523 193.206 404.195 166.653 397.239 166.298Z" fill="#8C5554"/>
<path d="M411.607 200.802C411.418 200.802 411.229 200.758 411.05 200.663L390.016 189.427C389.438 189.119 389.222 188.403 389.529 187.826C389.837 187.248 390.553 187.032 391.131 187.339L412.165 198.576C412.743 198.883 412.959 199.599 412.651 200.177C412.439 200.575 412.03 200.802 411.607 200.802Z" fill="#002A4D"/>
<path d="M377.57 209.147C377.489 209.147 377.411 209.14 377.33 209.123C376.843 209.022 365.33 206.59 357.65 200.548C357.137 200.143 357.049 199.4 357.455 198.887C357.86 198.373 358.603 198.285 359.113 198.691C366.347 204.382 377.695 206.786 377.81 206.81C378.448 206.942 378.86 207.566 378.729 208.208C378.614 208.765 378.12 209.15 377.573 209.15L377.57 209.147Z" fill="#002A4D"/>
<path d="M372.272 230.016C372.161 230.016 372.046 229.999 371.934 229.965C371.255 229.763 355.211 224.93 350.87 220.424C350.417 219.955 350.431 219.205 350.9 218.752C351.37 218.3 352.12 218.313 352.573 218.783C355.819 222.153 368.137 226.362 372.61 227.699C373.235 227.885 373.59 228.543 373.404 229.172C373.252 229.685 372.779 230.016 372.272 230.016Z" fill="#002A4D"/>
<path d="M367.978 251.04C367.887 251.04 367.793 251.03 367.698 251.006C356.992 248.402 347.502 240.425 347.103 240.084C346.606 239.662 346.546 238.915 346.968 238.419C347.39 237.922 348.137 237.861 348.633 238.28C348.728 238.358 358.107 246.237 368.259 248.706C368.894 248.862 369.283 249.5 369.127 250.135C368.995 250.675 368.512 251.037 367.978 251.037V251.04Z" fill="#002A4D"/>
<path d="M527.251 334.326C527.251 336.173 527.38 337.99 527.63 339.767C543.242 341.76 557.137 338.041 566.509 324.657C572.705 315.808 575.266 306.213 575.215 296.354C572.343 295.679 569.347 295.321 566.269 295.321C544.721 295.321 527.251 312.785 527.251 334.326Z" fill="#A52929"/>
<path d="M501.103 194.78C516.518 205.942 556.995 238.132 572.502 278.339C559.729 233.12 506.18 188.383 506.18 188.383L501.103 194.78Z" fill="#8C5554"/>
<path d="M494.565 174.999C494.565 174.999 610.777 253.911 570.316 328.547C570.316 328.547 530.579 380.191 428.703 288.823L458.2 234.417L494.565 174.999Z" fill="white"/>
<path d="M542.076 277.806C541.894 277.806 541.704 277.762 541.532 277.671C540.806 277.292 468.899 239.935 457.764 235.514C457.156 235.274 456.862 234.585 457.102 233.978C457.341 233.37 458.031 233.076 458.635 233.316C469.882 237.78 539.657 274.033 542.62 275.573C543.201 275.874 543.424 276.586 543.123 277.167C542.914 277.573 542.502 277.806 542.073 277.806H542.076Z" fill="#002A4D"/>
<path d="M301.261 232.394C300.89 234.498 299.711 236.781 297.305 239.185C297.305 239.185 297.525 239.385 297.856 239.746C299.025 241.013 301.576 244.279 301.021 248.132C300.677 250.547 299.109 253.191 295.217 255.718C283.335 263.421 258.129 280.916 228.584 274.658C228.584 274.658 165.104 333.704 117.542 339.767C101.93 341.76 88.0348 338.041 78.663 324.656C72.467 315.808 69.9061 306.213 69.9568 296.354C69.9872 290.413 70.9636 284.378 72.6663 278.349C72.6663 278.349 72.6663 278.343 72.6663 278.339C85.4402 233.12 138.988 188.383 138.988 188.383L144.066 194.78L177.628 237.048L178.367 237.98L189.685 233.484L207.506 223.856C207.506 223.856 211.881 200.903 218.986 196.931C225.645 193.206 240.973 166.653 247.929 166.298C248.396 166.275 248.828 166.369 249.213 166.596C254.558 169.737 253.325 184.621 252.916 188.44C252.855 189.011 252.811 189.335 252.811 189.335C252.811 189.335 280.389 172.114 289.072 183.087C289.805 184.016 290.342 184.948 290.71 185.874C293.575 192.99 286.785 199.62 286.785 199.62C286.785 199.62 286.842 199.636 286.95 199.674C288.4 200.157 298.761 204 295.846 214.318V214.325C295.4 215.902 294.643 217.631 293.494 219.522C293.481 219.549 293.464 219.576 293.447 219.603C293.447 219.603 302.599 224.815 301.258 232.394H301.261Z" fill="#B36D6B"/>
<path d="M290.714 185.874C280.393 181.118 250.098 191.595 250.098 191.595C250.098 191.595 251.25 190.305 252.919 188.441C252.858 189.011 252.814 189.336 252.814 189.336C252.814 189.336 280.393 172.114 289.075 183.087C289.808 184.016 290.345 184.948 290.714 185.874Z" fill="#8C5554"/>
<path d="M295.849 214.318C291.727 199.954 269.494 206.813 268.44 207.148L285.383 200.741C285.383 200.741 286.015 200.329 286.954 199.674C288.403 200.157 298.765 204 295.849 214.318Z" fill="#8C5554"/>
<path d="M301.261 232.394C301.187 232.279 301.113 232.164 301.038 232.042C295.403 222.886 276.501 227.743 275.562 227.99C286.153 224.784 292.46 219.604 292.46 219.604C292.46 219.604 292.852 219.573 293.498 219.522C293.484 219.549 293.467 219.576 293.45 219.604C293.45 219.604 302.602 224.815 301.261 232.394Z" fill="#8C5554"/>
<path d="M301.022 248.132C295.005 244.549 280.694 248.818 280.379 248.912L296.613 239.746H297.856C299.025 241.013 301.576 244.279 301.022 248.132Z" fill="#8C5554"/>
<path d="M247.933 166.298C244.25 175.218 231.263 194.803 222.243 201.143C211.966 208.367 212.449 228.108 212.449 228.108C212.449 228.108 106.359 275.617 105.346 275.617L177.127 238.5C177.127 238.5 177.303 237.986 177.631 237.048L178.371 237.98L189.688 233.484L207.51 223.856C207.51 223.856 211.885 200.903 218.989 196.931C225.648 193.206 240.976 166.653 247.933 166.298Z" fill="#8C5554"/>
<path d="M233.561 200.802C233.138 200.802 232.73 200.575 232.517 200.177C232.209 199.603 232.426 198.883 233.003 198.576L254.037 187.339C254.612 187.032 255.331 187.248 255.639 187.826C255.946 188.4 255.73 189.119 255.152 189.427L234.118 200.663C233.942 200.758 233.75 200.802 233.561 200.802Z" fill="#002A4D"/>
<path d="M267.599 209.147C267.051 209.147 266.558 208.762 266.443 208.205C266.311 207.566 266.72 206.942 267.362 206.807C267.477 206.783 278.825 204.382 286.058 198.687C286.572 198.282 287.315 198.373 287.717 198.883C288.123 199.397 288.031 200.14 287.521 200.545C279.845 206.587 268.328 209.019 267.842 209.12C267.761 209.137 267.68 209.144 267.602 209.144L267.599 209.147Z" fill="#002A4D"/>
<path d="M272.899 230.016C272.389 230.016 271.92 229.685 271.768 229.172C271.582 228.547 271.937 227.888 272.562 227.699C277.035 226.362 289.356 222.153 292.599 218.783C293.052 218.313 293.802 218.3 294.271 218.752C294.741 219.205 294.755 219.955 294.302 220.424C289.961 224.93 273.916 229.763 273.237 229.965C273.126 229.999 273.011 230.016 272.899 230.016Z" fill="#002A4D"/>
<path d="M277.193 251.04C276.66 251.04 276.177 250.679 276.045 250.138C275.889 249.503 276.281 248.865 276.913 248.71C287.065 246.241 296.444 238.361 296.538 238.284C297.038 237.862 297.782 237.922 298.204 238.422C298.626 238.922 298.565 239.665 298.069 240.087C297.67 240.425 288.18 248.402 277.474 251.01C277.379 251.033 277.285 251.043 277.193 251.043V251.04Z" fill="#002A4D"/>
<path d="M117.92 334.326C117.92 336.173 117.792 337.99 117.542 339.767C101.93 341.76 88.0348 338.041 78.663 324.657C72.467 315.808 69.9061 306.213 69.9568 296.354C72.8285 295.679 75.8251 295.321 78.9029 295.321C100.451 295.321 117.92 312.785 117.92 334.326Z" fill="#A52929"/>
<path d="M144.07 194.78C128.654 205.942 88.1769 238.132 72.6699 278.339C85.4438 233.12 138.992 188.383 138.992 188.383L144.07 194.78Z" fill="#8C5554"/>
<path d="M150.982 174.999C150.982 174.999 34.7704 253.911 75.2305 328.547C75.2305 328.547 114.968 380.191 216.844 288.823L187.347 234.417L150.982 174.999Z" fill="white"/>
<path d="M103.468 277.806C103.042 277.806 102.63 277.573 102.417 277.167C102.117 276.59 102.343 275.874 102.921 275.573C105.887 274.033 175.662 237.78 186.905 233.316C187.513 233.076 188.199 233.37 188.439 233.978C188.679 234.585 188.385 235.271 187.777 235.514C176.641 239.935 104.735 277.296 104.008 277.671C103.833 277.762 103.647 277.806 103.465 277.806H103.468Z" fill="#002A4D"/>
<path d="M289.188 142.104L286.687 142.638C285.01 142.996 283.941 144.645 284.299 146.321L285.969 154.143C286.327 155.819 287.976 156.888 289.653 156.53L292.154 155.996C293.831 155.638 294.901 153.989 294.543 152.313L292.872 144.491C292.514 142.815 290.865 141.746 289.188 142.104Z" fill="#002A4D"/>
<path d="M233.045 273.482C241.027 270.282 244.903 261.22 241.702 253.24C238.502 245.261 229.436 241.386 221.455 244.586C213.473 247.785 209.597 256.848 212.797 264.827C215.998 272.806 225.063 276.681 233.045 273.482Z" fill="#002A4D"/>
<path d="M231.409 269.355C237.1 267.053 239.846 260.575 237.544 254.886C235.241 249.198 228.762 246.452 223.071 248.754C217.381 251.056 214.634 257.533 216.937 263.222C219.239 268.911 225.719 271.656 231.409 269.355Z" fill="white"/>
<path d="M232.878 261.756C232.777 261.756 232.672 261.743 232.568 261.716L226.932 260.186C226.689 260.118 226.476 259.98 226.318 259.784L220.753 252.827C220.344 252.317 220.429 251.574 220.939 251.165C221.449 250.756 222.192 250.841 222.601 251.351L227.922 258.008L233.186 259.436C233.818 259.608 234.189 260.257 234.017 260.885C233.875 261.412 233.399 261.756 232.875 261.756H232.878Z" fill="#002A4D"/>
<path d="M224.51 244.329L207.51 223.856L191.709 232.394L211.909 261.713C211.909 261.713 214.399 251.081 224.514 244.329H224.51Z" fill="#002A4D"/>
<path d="M220.341 272.996L222.466 280.099L237.112 275.617L239.679 265.387C239.679 265.387 234.717 271.818 220.338 272.996H220.341Z" fill="#002A4D"/>
<path d="M608.818 373.5H1.18245C0.530414 373.5 0 372.97 0 372.318C0 371.666 0.530414 371.136 1.18245 371.136H608.818C609.47 371.136 610 371.666 610 372.318C610 372.97 609.47 373.5 608.818 373.5Z" fill="#002A4D"/>
</g>
<defs>
<clipPath id="clip0_1525_13415">
<rect width="610" height="373" fill="white" transform="translate(0 0.5)"/>
</clipPath>
</defs>
</svg>
