<svg width="40" height="40" viewBox="0 0 40 40" fill="none" xmlns="http://www.w3.org/2000/svg">
<g filter="url(#filter0_i_1668_12591)">
<g clip-path="url(#clip0_1668_12591)">
<rect width="40" height="40" rx="20" fill="#F1F8E2"/>
<g filter="url(#filter1_d_1668_12591)">
<path d="M9.4561 30.184V31.1004L22.4042 38.5771V37.6579C22.4042 37.1532 21.8981 36.4501 21.2744 36.0904L10.5859 29.9172C10.2098 29.7011 9.8774 29.6573 9.67222 29.7668C9.6006 29.8089 9.54233 29.8705 9.5041 29.9442C9.46587 30.018 9.44924 30.1011 9.4561 30.184Z" fill="#263238"/>
<path d="M17.0592 25.5031L17.0756 25.4949C17.2794 25.3773 17.6227 25.4169 18.0002 25.6317L28.69 31.8034C29.3124 32.1632 29.8185 32.8663 29.8185 33.3724V34.2902L22.4034 38.5716V37.6524C22.4034 37.1476 21.8973 36.4446 21.2735 36.0848L10.5851 29.9117C10.209 29.6956 9.87656 29.6518 9.67139 29.7612L17.0592 25.5031Z" fill="#455A64"/>
<path d="M25.4286 30.6749C24.5299 30.1565 23.3084 29.9404 22.1376 30.0225L17.6524 27.4318L14.1958 29.4275L18.6796 32.0195C18.536 32.6953 18.9135 33.4011 19.8122 33.9195C21.3634 34.8154 23.8775 34.8154 25.4286 33.9195C26.9798 33.0236 26.9798 31.5709 25.4286 30.6749Z" fill="#37474F"/>
<path d="M13.3652 27.4194V28.9486L16.0134 30.4779V28.9486C16.0134 28.1046 15.4211 27.0774 14.6893 26.6547C14.3186 26.44 13.9849 26.4222 13.7455 26.5672C13.5061 26.7122 13.3652 27.0022 13.3652 27.4194Z" fill="#B3D766"/>
<path opacity="0.6" d="M13.3652 27.4194V28.9486L16.0134 30.4779V28.9486C16.0134 28.1046 15.4211 27.0774 14.6893 26.6547C14.3186 26.44 13.9849 26.4222 13.7455 26.5672C13.5061 26.7122 13.3652 27.0022 13.3652 27.4194Z" fill="white"/>
<path d="M16.9133 24.7371L16.9339 24.7248C17.1732 24.5881 17.5029 24.6099 17.8667 24.8206C18.5985 25.2419 19.1908 26.2691 19.1908 27.1131V28.6437L16.0133 30.478V28.9488C16.0133 28.1048 15.421 27.0775 14.6892 26.6549C14.3377 26.4524 14.0203 26.4251 13.7837 26.5455L16.9133 24.7371Z" fill="#B3D766"/>
<path opacity="0.7" d="M16.9133 24.7371L16.9339 24.7248C17.1732 24.5881 17.5029 24.6099 17.8667 24.8206C18.5985 25.2419 19.1908 26.2691 19.1908 27.1131V28.6437L16.0133 30.478V28.9488C16.0133 28.1048 15.421 27.0775 14.6892 26.6549C14.3377 26.4524 14.0203 26.4251 13.7837 26.5455L16.9133 24.7371Z" fill="white"/>
<path d="M14.6893 27.9978C14.4951 27.8843 14.3364 27.976 14.3364 28.2016C14.3432 28.3243 14.3787 28.4436 14.44 28.55C14.5013 28.6565 14.5867 28.747 14.6893 28.8144C14.8849 28.9266 15.0436 28.835 15.0436 28.6093C15.0368 28.4867 15.0011 28.3674 14.9396 28.2612C14.878 28.155 14.7923 28.0647 14.6893 27.9978Z" fill="#455A64"/>
<path d="M12.6868 21.5349C13.3967 23.8493 13.8973 24.8259 15.2241 26.596L17.6863 25.1747C16.4703 23.2598 15.8 21.8194 15.4895 19.9208C14.9506 16.6161 16.1666 13.7149 17.4537 12.5207L16.4962 11.1967C15.9217 11.5414 14.0341 12.6192 14.0341 12.6192L14.8384 13.9652C12.5377 15.2168 11.9782 19.2191 12.6868 21.5349Z" fill="#37474F"/>
<path d="M14.0356 12.6136C12.7334 13.392 10.7391 15.6749 11.0373 19.9932C11.1823 22.0997 12.0358 24.6549 13.5418 26.7586C13.5931 26.6791 13.6631 26.6133 13.7456 26.5671C13.8387 26.5124 13.9823 26.4303 14.0835 26.3715C14.3229 26.2347 14.6566 26.2457 15.026 26.4591C15.0952 26.5006 15.1619 26.5463 15.2257 26.5958C14.1587 24.6261 13.0371 22.9026 12.7635 20.9945C12.1671 16.8499 13.9864 14.4712 14.8386 13.9637L14.0356 12.6136Z" fill="#263238"/>
<path d="M14.0356 12.6138C14.7029 12.2316 15.4554 12.0227 16.2242 12.0065L16.4745 13.4537C16.4745 13.4537 15.8303 13.3483 14.8427 13.9598L14.0356 12.6138Z" fill="#263238"/>
<path d="M20.2446 30.5711V29.3482L23.6998 27.3525V28.5754L20.2446 30.5711Z" fill="#B3D766"/>
<path opacity="0.15" d="M20.2446 30.5711V29.3482L23.6998 27.3525V28.5754L20.2446 30.5711Z" fill="black"/>
<path d="M20.2445 30.5709L14.1958 27.0788V25.856L20.2445 29.3481V30.5709Z" fill="#B3D766"/>
<path opacity="0.25" d="M20.2445 30.5709L14.1958 27.0788V25.856L20.2445 29.3481V30.5709Z" fill="black"/>
<path d="M23.6996 27.3522L17.651 23.8601L14.1958 25.8558L20.2445 29.3479L23.6996 27.3522Z" fill="#B3D766"/>
<path d="M26.59 29.8461V28.7245C26.59 28.1377 26.2043 27.5509 25.4287 27.1022C23.8776 26.2076 21.3635 26.2076 19.8123 27.1022C19.0367 27.5509 18.6496 28.1377 18.6496 28.7245V29.8461C18.6387 30.4411 19.0258 31.0375 19.8109 31.4875C21.3621 32.3835 23.8762 32.3835 25.4274 31.4875C26.2125 31.0348 26.5982 30.4384 26.5873 29.8461H26.59Z" fill="#B3D766"/>
<path opacity="0.25" d="M26.59 29.8461V28.7245C26.59 28.1377 26.2043 27.5509 25.4287 27.1022C23.8776 26.2076 21.3635 26.2076 19.8123 27.1022C19.0367 27.5509 18.6496 28.1377 18.6496 28.7245V29.8461C18.6387 30.4411 19.0258 31.0375 19.8109 31.4875C21.3621 32.3835 23.8762 32.3835 25.4274 31.4875C26.2125 31.0348 26.5982 30.4384 26.5873 29.8461H26.59Z" fill="black"/>
<path d="M19.8123 27.1022C21.3634 26.2076 23.8775 26.2076 25.4287 27.1022C26.9798 27.9968 26.9798 29.4494 25.4287 30.3454C23.8775 31.2413 21.3634 31.2413 19.8123 30.3454C18.2611 29.4494 18.2611 27.9982 19.8123 27.1022Z" fill="#B3D766"/>
<path d="M25.5965 28.6629V27.8217C25.5965 27.3812 25.3079 26.9408 24.7252 26.6056C23.5625 25.934 21.6763 25.934 20.5136 26.6056C19.9322 26.9408 19.6423 27.3812 19.6423 27.8217V28.6629C19.6341 29.1088 19.924 29.5561 20.5122 29.894C21.6749 30.5656 23.5612 30.5656 24.7238 29.894C25.3134 29.5547 25.602 29.1074 25.5952 28.6629H25.5965Z" fill="#E0E0E0"/>
<path d="M20.5136 26.6056C21.6763 25.934 23.5626 25.934 24.7252 26.6056C25.8879 27.2773 25.8879 28.3661 24.7252 29.0363C23.5626 29.7066 21.6763 29.7079 20.5136 29.0363C19.3509 28.3647 19.3509 27.2773 20.5136 26.6056Z" fill="#FAFAFA"/>
<path d="M20.6338 26.6753C21.728 26.042 23.5062 26.042 24.6005 26.6753C25.6948 27.3086 25.6948 28.3345 24.6005 28.9678C23.5062 29.6011 21.728 29.6011 20.6338 28.9678C19.5395 28.3345 19.5367 27.3073 20.6338 26.6753Z" fill="#E6E6E6"/>
<path d="M24.6052 27.4524C23.5109 26.8204 21.7327 26.8204 20.6384 27.4524C20.3166 27.6187 20.0571 27.8845 19.8984 28.2101C20.0571 28.5358 20.3166 28.8016 20.6384 28.9679C21.7327 29.6013 23.5109 29.6013 24.6052 28.9679C24.9274 28.8016 25.1873 28.5359 25.3466 28.2101C25.1873 27.8844 24.9274 27.6187 24.6052 27.4524Z" fill="#F0F0F0"/>
<path d="M22.116 27.9157C22.2723 27.8369 22.4449 27.7958 22.62 27.7958C22.7951 27.7958 22.9678 27.8369 23.1241 27.9157C23.3976 28.0771 23.3976 28.337 23.1241 28.4985C22.9678 28.5773 22.7951 28.6184 22.62 28.6184C22.4449 28.6184 22.2723 28.5773 22.116 28.4985C21.8383 28.3398 21.8383 28.0799 22.116 27.9157Z" fill="#B3D766"/>
<path d="M23.3933 28.5094C23.4415 28.4845 23.495 28.4714 23.5493 28.4714C23.6035 28.4714 23.657 28.4845 23.7052 28.5094C23.724 28.5156 23.7404 28.5277 23.752 28.5437C23.7636 28.5598 23.7699 28.5792 23.7699 28.599C23.7699 28.6188 23.7636 28.6382 23.752 28.6543C23.7404 28.6703 23.724 28.6824 23.7052 28.6886C23.657 28.7135 23.6035 28.7266 23.5493 28.7266C23.495 28.7266 23.4415 28.7135 23.3933 28.6886C23.3745 28.6824 23.3581 28.6703 23.3465 28.6543C23.3349 28.6382 23.3286 28.6188 23.3286 28.599C23.3286 28.5792 23.3349 28.5598 23.3465 28.5437C23.3581 28.5277 23.3745 28.5156 23.3933 28.5094Z" fill="#B3D766"/>
<path opacity="0.6" d="M23.1133 28.0707C23.1133 28.1487 23.0039 28.2075 22.8685 28.2075C22.7331 28.2075 22.625 28.146 22.625 28.0707C22.625 27.9955 22.7344 27.934 22.8685 27.934C23.0025 27.934 23.1133 27.9941 23.1133 28.0707Z" fill="white"/>
<path opacity="0.6" d="M23.6772 28.5547C23.6772 28.5794 23.643 28.5985 23.602 28.5985C23.561 28.5985 23.5254 28.5794 23.5254 28.5547C23.5254 28.5301 23.5596 28.5123 23.602 28.5123C23.6444 28.5123 23.6772 28.5315 23.6772 28.5547Z" fill="white"/>
<path d="M23.9141 21.7865V18.6829L26.0753 18.6897V21.7934C26.0753 21.9534 25.9686 22.1121 25.7579 22.2338C25.5212 22.3539 25.2594 22.4164 24.994 22.4164C24.7285 22.4164 24.4668 22.3539 24.23 22.2338C24.1418 22.1949 24.0657 22.1327 24.0101 22.0539C23.9544 21.9751 23.9212 21.8827 23.9141 21.7865Z" fill="#263238"/>
<path d="M26.0739 21.1465C26.0739 21.3065 25.9672 21.4652 25.7566 21.587C25.5198 21.707 25.2581 21.7696 24.9926 21.7696C24.7272 21.7696 24.4654 21.707 24.2287 21.587C24.1414 21.5483 24.0662 21.4869 24.0108 21.4091C23.9555 21.3314 23.9221 21.2402 23.9141 21.1451V21.7921C23.9221 21.8872 23.9555 21.9784 24.0108 22.0561C24.0662 22.1339 24.1414 22.1953 24.2287 22.234C24.4654 22.354 24.7272 22.4166 24.9926 22.4166C25.2581 22.4166 25.5198 22.354 25.7566 22.234C25.9672 22.1122 26.0739 21.9604 26.0739 21.7935V21.1465Z" fill="#B3D766"/>
<path opacity="0.6" d="M26.0739 21.1465C26.0739 21.3065 25.9672 21.4652 25.7566 21.587C25.5198 21.707 25.2581 21.7696 24.9926 21.7696C24.7272 21.7696 24.4654 21.707 24.2287 21.587C24.1414 21.5483 24.0662 21.4869 24.0108 21.4091C23.9555 21.3314 23.9221 21.2402 23.9141 21.1451V21.7921C23.9221 21.8872 23.9555 21.9784 24.0108 22.0561C24.0662 22.1339 24.1414 22.1953 24.2287 22.234C24.4654 22.354 24.7272 22.4166 24.9926 22.4166C25.2581 22.4166 25.5198 22.354 25.7566 22.234C25.9672 22.1122 26.0739 21.9604 26.0739 21.7935V21.1465Z" fill="white"/>
<path d="M21.335 21.7865V18.6829L19.1738 18.6897V21.7934C19.1738 21.9534 19.2805 22.1121 19.4912 22.2338C19.7279 22.3539 19.9897 22.4164 20.2551 22.4164C20.5206 22.4164 20.7823 22.3539 21.0191 22.2338C21.1072 22.1946 21.183 22.1324 21.2386 22.0537C21.2943 21.9749 21.3276 21.8826 21.335 21.7865Z" fill="#263238"/>
<path d="M19.1709 21.1465C19.1709 21.3065 19.2776 21.4652 19.4882 21.587C19.725 21.707 19.9867 21.7696 20.2522 21.7696C20.5176 21.7696 20.7794 21.707 21.0161 21.587C21.1032 21.5481 21.1783 21.4866 21.2336 21.4089C21.2889 21.3312 21.3225 21.2401 21.3307 21.1451V21.7921C21.3225 21.8871 21.2889 21.9782 21.2336 22.0559C21.1783 22.1336 21.1032 22.195 21.0161 22.234C20.7794 22.354 20.5176 22.4166 20.2522 22.4166C19.9867 22.4166 19.725 22.354 19.4882 22.234C19.2776 22.1122 19.1709 21.9604 19.1709 21.7935V21.1465Z" fill="#B3D766"/>
<path opacity="0.25" d="M19.1709 21.1465C19.1709 21.3065 19.2776 21.4652 19.4882 21.587C19.725 21.707 19.9867 21.7696 20.2522 21.7696C20.5176 21.7696 20.7794 21.707 21.0161 21.587C21.1032 21.5481 21.1783 21.4866 21.2336 21.4089C21.2889 21.3312 21.3225 21.2401 21.3307 21.1451V21.7921C21.3225 21.8871 21.2889 21.9782 21.2336 22.0559C21.1783 22.1336 21.1032 22.195 21.0161 22.234C20.7794 22.354 20.5176 22.4166 20.2522 22.4166C19.9867 22.4166 19.725 22.354 19.4882 22.234C19.2776 22.1122 19.1709 21.9604 19.1709 21.7935V21.1465Z" fill="black"/>
<path d="M21.5401 23.1559V20.0509L23.6999 20.0577V23.1628C23.6907 23.2575 23.6565 23.3482 23.6008 23.4253C23.545 23.5025 23.4697 23.5634 23.3826 23.6019C23.1458 23.7219 22.8841 23.7845 22.6186 23.7845C22.3531 23.7845 22.0914 23.7219 21.8547 23.6019C21.644 23.4746 21.5387 23.3146 21.5401 23.1559Z" fill="#37474F"/>
<path d="M23.6999 22.5145C23.6999 22.6745 23.5932 22.8332 23.3826 22.9549C23.1457 23.0746 22.884 23.137 22.6186 23.137C22.3532 23.137 22.0915 23.0746 21.8547 22.9549C21.644 22.8318 21.5387 22.6718 21.5401 22.5117V23.1601C21.5401 23.3188 21.644 23.4788 21.8547 23.6019C22.0914 23.7219 22.3531 23.7845 22.6186 23.7845C22.8841 23.7845 23.1458 23.7219 23.3826 23.6019C23.4697 23.5635 23.545 23.5026 23.6008 23.4254C23.6565 23.3482 23.6907 23.2576 23.6999 23.1628V22.5145Z" fill="#B3D766"/>
<path d="M26.292 15.9803C26.292 15.5426 26.0567 15.1063 25.5766 14.7397C25.2951 14.5194 25.0399 14.2674 24.8161 13.9887L23.7833 12.733C23.1762 11.9845 22.362 11.4316 21.4424 11.1433C20.5228 10.855 19.5386 10.8442 18.6128 11.1121C18.3137 11.1999 18.0255 11.3215 17.7538 11.4746C16.9919 11.911 16.6472 12.5005 16.7238 13.075V16.6807C16.6801 17.2278 17.0234 17.7941 17.7525 18.2181L20.2406 19.6612C21.6194 20.4641 23.8613 20.471 25.2469 19.6776C25.9309 19.2809 26.2838 18.7612 26.2879 18.24C26.292 17.7189 26.2892 16.5015 26.292 15.9803Z" fill="#37474F"/>
<path d="M17.6509 17.1676L18.5154 17.6655V17.1676L17.6509 16.6683V17.1676Z" fill="#B3D766"/>
<path d="M19.2213 16.1595C19.8281 16.9084 20.6423 17.4617 21.5619 17.7502C22.4816 18.0388 23.4659 18.0498 24.3918 17.7818C24.6909 17.694 24.9791 17.5724 25.2508 17.4193C26.5201 16.6916 26.6296 15.544 25.5763 14.7383C25.2949 14.5194 25.0402 14.2683 24.8172 13.9901L23.7831 12.733C23.176 11.9845 22.3617 11.4316 21.4421 11.1433C20.5225 10.855 19.5383 10.8442 18.6126 11.1121C18.3134 11.1999 18.0252 11.3215 17.7536 11.4746C16.4842 12.2023 16.3748 13.3499 17.4294 14.1542C17.7105 14.374 17.9652 14.6255 18.1885 14.9038L19.2213 16.1595Z" fill="#455A64"/>
<path d="M25.2505 19.2437C23.8649 20.0384 21.623 20.0316 20.2442 19.2287L17.7451 17.7856C17.0612 17.3848 16.711 16.8596 16.7124 16.337V16.7693C16.7124 17.2918 17.0544 17.8171 17.7451 18.2178L20.2401 19.6609C21.6189 20.4638 23.8608 20.4707 25.2464 19.6773C25.9304 19.2807 26.2833 18.7609 26.2874 18.2397V17.8075C26.2874 18.3286 25.9399 18.8484 25.2505 19.2437Z" fill="#B3D766"/>
<path d="M16.7109 12.916V10.4539L23.7923 10.4757V12.9379C23.7923 13.4604 23.4435 13.9829 22.7514 14.3796C21.3657 15.1743 19.1252 15.1675 17.745 14.3646C17.0529 13.9638 16.7096 13.4385 16.7109 12.916Z" fill="#37474F"/>
<path d="M23.7967 10.4814L16.7153 10.4595C16.7153 10.4595 16.7153 10.4827 16.7153 11.0066C16.7153 11.5305 17.0573 12.053 17.7481 12.4552C19.1269 13.2567 21.3688 13.2649 22.7544 12.4702C23.4465 12.0735 23.794 11.551 23.7953 11.0285C23.7967 10.506 23.7967 10.4814 23.7967 10.4814Z" fill="#B3D766"/>
<path d="M22.7609 9.03951C21.3807 8.23795 19.1388 8.22974 17.7532 9.02447C16.3676 9.81919 16.3648 11.1132 17.745 11.9147C19.1252 12.7163 21.3671 12.7245 22.7513 11.9312C24.1356 11.1378 24.1411 9.8356 22.7609 9.03951Z" fill="#B3D766"/>
<path opacity="0.5" d="M22.7609 9.03951C21.3807 8.23795 19.1388 8.22974 17.7532 9.02447C16.3676 9.81919 16.3648 11.1132 17.745 11.9147C19.1252 12.7163 21.3671 12.7245 22.7513 11.9312C24.1356 11.1378 24.1411 9.8356 22.7609 9.03951Z" fill="white"/>
<path d="M18.7202 10.2707V5.86621L21.7801 5.87578V10.2707C21.7801 10.4964 21.6283 10.7221 21.3287 10.8944C20.9927 11.063 20.6218 11.1502 20.2459 11.149C19.87 11.1478 19.4997 11.0583 19.1648 10.8876C18.872 10.7166 18.7202 10.4896 18.7202 10.2707Z" fill="#37474F"/>
<path d="M21.7816 5.87578L18.7217 5.86621C18.7217 5.86621 18.7217 6.28477 18.7217 6.51047C18.7217 6.73616 18.8708 6.96323 19.169 7.13695C19.5043 7.30688 19.875 7.39543 20.2509 7.39543C20.6269 7.39543 20.9976 7.30688 21.3329 7.13695C21.6311 6.9646 21.7816 6.7389 21.7829 6.51321C21.7843 6.28751 21.7816 5.87578 21.7816 5.87578Z" fill="#B3D766"/>
<path d="M21.334 5.24932C20.9986 5.07971 20.6279 4.99133 20.252 4.99133C19.8761 4.99133 19.5055 5.07971 19.1701 5.24932C18.5709 5.59265 18.5696 6.1521 19.1701 6.49954C19.5049 6.67053 19.8753 6.76025 20.2512 6.76144C20.6272 6.76263 20.9981 6.67525 21.334 6.50638C21.9304 6.15621 21.9318 5.59675 21.334 5.24932Z" fill="#B3D766"/>
<path opacity="0.25" d="M21.334 5.24932C20.9986 5.07971 20.6279 4.99133 20.252 4.99133C19.8761 4.99133 19.5055 5.07971 19.1701 5.24932C18.5709 5.59265 18.5696 6.1521 19.1701 6.49954C19.5049 6.67053 19.8753 6.76025 20.2512 6.76144C20.6272 6.76263 20.9981 6.67525 21.334 6.50638C21.9304 6.15621 21.9318 5.59675 21.334 5.24932Z" fill="black"/>
<path d="M21.0308 5.42463C20.7898 5.30221 20.5234 5.2384 20.2531 5.2384C19.9829 5.2384 19.7165 5.30221 19.4755 5.42463C19.0447 5.67222 19.0433 6.07436 19.4755 6.32331C19.7165 6.44573 19.9829 6.50954 20.2531 6.50954C20.5234 6.50954 20.7898 6.44573 21.0308 6.32331C21.4589 6.07573 21.4603 5.67358 21.0308 5.42463Z" fill="#263238"/>
<path d="M19.4754 6.05488C19.4109 6.09201 19.3519 6.13806 19.3003 6.19167C19.3508 6.24537 19.4089 6.29145 19.4726 6.32845C19.7136 6.45087 19.98 6.51468 20.2503 6.51468C20.5205 6.51468 20.787 6.45087 21.0279 6.32845C21.0924 6.29129 21.1513 6.24525 21.203 6.19167C21.1517 6.13879 21.0938 6.09281 21.0306 6.05488C20.7897 5.93246 20.5233 5.86865 20.253 5.86865C19.9827 5.86865 19.7163 5.93246 19.4754 6.05488Z" fill="#455A64"/>
<path d="M19.9068 6.11497C19.9191 6.17515 19.863 6.23671 19.781 6.25175C19.6989 6.2668 19.6209 6.23534 19.6086 6.17652C19.5963 6.11771 19.6524 6.05478 19.7345 6.03974C19.7674 6.02787 19.8036 6.02905 19.8356 6.04304C19.8677 6.05703 19.8932 6.08277 19.9068 6.11497Z" fill="#FAFAFA"/>
<path d="M20.1029 6.04927C20.104 6.0637 20.0999 6.07804 20.0913 6.08968C20.0827 6.10131 20.0702 6.10945 20.0561 6.11261C20.0419 6.11576 20.0271 6.11373 20.0144 6.10687C20.0017 6.10001 19.9918 6.08878 19.9867 6.07526C19.9834 6.05985 19.9863 6.04377 19.9947 6.03048C20.0032 6.01718 20.0165 6.00772 20.0318 6.00413C20.0472 6.00085 20.0633 6.00374 20.0766 6.01218C20.0899 6.02062 20.0993 6.03393 20.1029 6.04927Z" fill="#FAFAFA"/>
<path d="M15.8452 11.0913C16.0559 10.9545 16.3527 10.9737 16.681 11.1638C16.8691 11.2752 17.0377 11.4166 17.1802 11.5824C17.2172 11.6234 17.2527 11.6658 17.2856 11.7096V11.7164C17.4757 11.964 17.6236 12.2413 17.7233 12.5371C17.7948 12.7436 17.8327 12.9602 17.8354 13.1787C17.8354 13.5398 17.7123 13.7969 17.5113 13.9214L17.1242 14.1457C17.1847 14.1075 17.2375 14.0583 17.2801 14.0007C17.3995 13.825 17.4586 13.6152 17.4483 13.403C17.4483 12.663 16.9285 11.7616 16.287 11.3923C16.1074 11.277 15.8951 11.2237 15.6824 11.2404C15.6033 11.2491 15.5272 11.2752 15.4595 11.317L15.8452 11.0913Z" fill="#B3D766"/>
<path opacity="0.7" d="M15.8452 11.0913C16.0559 10.9545 16.3527 10.9737 16.681 11.1638C16.8691 11.2752 17.0377 11.4166 17.1802 11.5824C17.2172 11.6234 17.2527 11.6658 17.2856 11.7096V11.7164C17.4757 11.964 17.6236 12.2413 17.7233 12.5371C17.7948 12.7436 17.8327 12.9602 17.8354 13.1787C17.8354 13.5398 17.7123 13.7969 17.5113 13.9214L17.1242 14.1457C17.1847 14.1075 17.2375 14.0583 17.2801 14.0007C17.3995 13.825 17.4586 13.6152 17.4483 13.403C17.4483 12.663 16.9285 11.7616 16.287 11.3923C16.1074 11.277 15.8951 11.2237 15.6824 11.2404C15.6033 11.2491 15.5272 11.2752 15.4595 11.317L15.8452 11.0913Z" fill="white"/>
<path d="M15.4667 11.3101C15.5344 11.2683 15.6105 11.2421 15.6896 11.2335C15.9023 11.2168 16.1146 11.2701 16.2942 11.3853C16.9357 11.756 17.4555 12.656 17.4555 13.396C17.4658 13.6083 17.4067 13.8181 17.2873 13.9938C17.2447 14.0514 17.1918 14.1005 17.1313 14.1388L17.1122 14.1484C17.0152 14.2031 16.9047 14.2292 16.7935 14.2236C16.6167 14.2129 16.4452 14.1589 16.2942 14.0663C15.6541 13.6956 15.1343 12.7956 15.1343 12.0555C15.1343 11.6903 15.2601 11.4332 15.4667 11.3101Z" fill="#B3D766"/>
<path opacity="0.6" d="M15.4667 11.3101C15.5344 11.2683 15.6105 11.2421 15.6896 11.2335C15.9023 11.2168 16.1146 11.2701 16.2942 11.3853C16.9357 11.756 17.4555 12.656 17.4555 13.396C17.4658 13.6083 17.4067 13.8181 17.2873 13.9938C17.2447 14.0514 17.1918 14.1005 17.1313 14.1388L17.1122 14.1484C17.0152 14.2031 16.9047 14.2292 16.7935 14.2236C16.6167 14.2129 16.4452 14.1589 16.2942 14.0663C15.6541 13.6956 15.1343 12.7956 15.1343 12.0555C15.1343 11.6903 15.2601 11.4332 15.4667 11.3101Z" fill="white"/>
<path d="M16.2941 12.1856C16.0369 12.0365 15.8276 12.1582 15.8276 12.4591C15.8365 12.6212 15.8833 12.779 15.9643 12.9196C16.0453 13.0603 16.1583 13.1799 16.2941 13.2689C16.5526 13.418 16.7619 13.2976 16.7619 12.9953C16.7529 12.8331 16.7059 12.6753 16.6246 12.5346C16.5433 12.394 16.4301 12.2744 16.2941 12.1856Z" fill="#455A64"/>
</g>
</g>
</g>
<defs>
<filter id="filter0_i_1668_12591" x="0" y="0" width="40" height="42" filterUnits="userSpaceOnUse" color-interpolation-filters="sRGB">
<feFlood flood-opacity="0" result="BackgroundImageFix"/>
<feBlend mode="normal" in="SourceGraphic" in2="BackgroundImageFix" result="shape"/>
<feColorMatrix in="SourceAlpha" type="matrix" values="0 0 0 0 0 0 0 0 0 0 0 0 0 0 0 0 0 0 127 0" result="hardAlpha"/>
<feOffset dy="2"/>
<feGaussianBlur stdDeviation="1"/>
<feComposite in2="hardAlpha" operator="arithmetic" k2="-1" k3="1"/>
<feColorMatrix type="matrix" values="0 0 0 0 0 0 0 0 0 0 0 0 0 0 0 0 0 0 0.25 0"/>
<feBlend mode="normal" in2="shape" result="effect1_innerShadow_1668_12591"/>
</filter>
<filter id="filter1_d_1668_12591" x="7.45459" y="4.99133" width="24.3638" height="37.5858" filterUnits="userSpaceOnUse" color-interpolation-filters="sRGB">
<feFlood flood-opacity="0" result="BackgroundImageFix"/>
<feColorMatrix in="SourceAlpha" type="matrix" values="0 0 0 0 0 0 0 0 0 0 0 0 0 0 0 0 0 0 127 0" result="hardAlpha"/>
<feOffset dy="2"/>
<feGaussianBlur stdDeviation="1"/>
<feComposite in2="hardAlpha" operator="out"/>
<feColorMatrix type="matrix" values="0 0 0 0 0 0 0 0 0 0 0 0 0 0 0 0 0 0 0.25 0"/>
<feBlend mode="normal" in2="BackgroundImageFix" result="effect1_dropShadow_1668_12591"/>
<feBlend mode="normal" in="SourceGraphic" in2="effect1_dropShadow_1668_12591" result="shape"/>
</filter>
<clipPath id="clip0_1668_12591">
<rect width="40" height="40" rx="20" fill="white"/>
</clipPath>
</defs>
</svg>
