<svg width="40" height="40" viewBox="0 0 40 40" fill="none" xmlns="http://www.w3.org/2000/svg">
<g filter="url(#filter0_i_1614_11748)">
<g clip-path="url(#clip0_1614_11748)">
<rect width="40" height="40" rx="20" fill="#F0DAEC"/>
<g filter="url(#filter1_d_1614_11748)">
<path d="M28.3598 6.38452C28.3718 6.27539 28.3545 6.16503 28.3095 6.06486C28.2646 5.96469 28.1937 5.87836 28.1042 5.8148L26.7553 5.04183C26.6564 4.99682 26.5473 4.97881 26.4391 4.98963C26.3309 5.00045 26.2275 5.03971 26.1394 5.10342L12.1921 13.1534C11.9343 13.3224 11.7202 13.5501 11.5671 13.8177C11.414 14.0853 11.3264 14.3852 11.3114 14.6932V36.5272C11.2997 36.6366 11.3175 36.7472 11.363 36.8474C11.4085 36.9476 11.48 37.0337 11.57 37.0969L12.9189 37.8699C13.0178 37.9149 13.127 37.9329 13.2351 37.9221C13.3433 37.9113 13.4467 37.872 13.5348 37.8083L27.4821 29.7553C27.7404 29.5868 27.955 29.3593 28.1081 29.0916C28.2612 28.8239 28.3486 28.5236 28.3629 28.2155L28.3598 6.38452Z" fill="#263238"/>
<path d="M12.6509 37.2937V15.4597C12.6652 15.1516 12.7525 14.8513 12.9056 14.5836C13.0588 14.3159 13.2733 14.0884 13.5316 13.9199L27.4789 5.88227C27.9655 5.60203 28.3597 5.82991 28.3597 6.39347V28.2244C28.3454 28.5325 28.2581 28.8328 28.1049 29.1005C27.9518 29.3682 27.7373 29.5957 27.4789 29.7642L13.5316 37.8173C13.0605 38.076 12.6509 37.8481 12.6509 37.2937Z" fill="#455A64"/>
<path d="M28.1042 5.8145C28.0055 5.76906 27.8965 5.75053 27.7883 5.76081C27.6801 5.77108 27.5766 5.8098 27.4882 5.87301L13.5409 13.926C13.2833 14.0903 13.0714 14.317 12.925 14.5851L11.5762 13.8121C11.7229 13.545 11.9348 13.3194 12.1921 13.1562L26.1394 5.10312C26.2272 5.03891 26.3304 4.9991 26.4386 4.98774C26.5468 4.97638 26.6561 4.99388 26.7553 5.03845L28.1042 5.8145Z" fill="#37474F"/>
<path d="M26.1763 14.5945C25.9885 13.5321 25.1478 12.7468 23.9437 14.4066C22.7396 16.0665 21.8927 19.026 20.7286 19.8082C19.9926 20.3102 18.9456 18.9705 18.0278 18.6349C17.1101 18.2992 15.9245 18.6872 15.1731 21.7883C14.4217 24.8895 14.5325 26.0782 15.0776 26.5524C15.8352 27.2114 16.8976 26.6756 17.7476 26.5278C18.5976 26.38 17.8677 27.8797 18.2157 28.7358C18.5637 29.5919 19.4167 29.441 19.9279 28.3262C20.0296 28.1014 20.125 27.8797 20.2082 27.6703C20.4823 26.9959 20.9873 26.6571 21.2922 26.9589C21.363 27.0313 21.4391 27.0982 21.5201 27.1591C22.1575 27.6426 23.1122 26.2352 23.0598 25.0989C23.0075 23.9625 22.9675 23.1557 23.4232 22.6352C23.879 22.1148 25.1231 21.776 25.7729 20.3563C26.4227 18.9367 26.3673 15.66 26.1763 14.5945ZM18.459 22.6013C18.4001 22.9125 18.2887 23.2114 18.1295 23.4852C18.0063 23.7306 17.8631 23.9654 17.7014 24.1873C17.4427 24.5225 17.0797 24.7619 16.6698 24.8679C16.5263 24.9186 16.3698 24.9186 16.2263 24.8679C15.6689 24.6061 16.0384 22.7368 16.2694 21.8838C16.3597 21.5336 16.4964 21.197 16.6759 20.8829C16.7229 20.806 16.7798 20.7355 16.8453 20.6735C16.9353 20.5923 17.0437 20.5342 17.1612 20.5041C17.2787 20.4741 17.4017 20.473 17.5197 20.5011C17.6938 20.5206 17.8532 20.608 17.9632 20.7444C18.0431 20.8766 18.1032 21.0198 18.1418 21.1694L18.3543 21.8253C18.4521 22.0758 18.488 22.3463 18.459 22.6137V22.6013ZM19.6908 27.3254C19.6089 27.5242 19.4549 27.6848 19.2597 27.775C19.1817 27.7823 19.103 27.7733 19.0288 27.7483C18.9545 27.7234 18.8863 27.6832 18.8285 27.6303C18.7674 27.54 18.7421 27.4302 18.7577 27.3223C18.7873 27.1698 18.8481 27.0252 18.9363 26.8973C19.1088 26.6202 19.2751 26.3676 19.429 26.0628C19.5522 25.8287 19.66 25.6532 19.8078 25.7302C20.1435 25.8996 19.9279 26.8758 19.6877 27.3377L19.6908 27.3254ZM22.3977 25.8657C22.2499 26.0535 22.0898 26.2537 21.9296 26.2537C21.7695 26.2537 21.7325 26.1274 21.6771 25.9889C21.6215 25.8534 21.5822 25.7117 21.5601 25.567C21.5181 25.3638 21.5181 25.1542 21.5601 24.951C21.7418 24.2304 22.1544 24.5846 22.3793 24.6862C22.6041 24.7878 22.7057 25.4807 22.3947 25.878L22.3977 25.8657ZM25.4927 17.1536C25.4633 17.7528 25.3882 18.3489 25.2679 18.9367C25.2365 19.1451 25.1709 19.347 25.0739 19.5341C25.0356 19.6183 24.976 19.6911 24.9009 19.7451C24.8258 19.7992 24.7378 19.8326 24.6458 19.8421C24.3154 19.8492 23.9915 19.7499 23.7219 19.5587C23.558 19.462 23.4193 19.3279 23.317 19.1674C23.2148 19.0068 23.152 18.8243 23.1338 18.6349C23.1572 18.3357 23.2355 18.0434 23.3647 17.7726C23.4971 17.4338 23.5988 17.0735 23.7527 16.741C23.8596 16.4861 24.024 16.2595 24.2332 16.0788C24.3008 16.0242 24.3809 15.9872 24.4664 15.9711C24.5518 15.9549 24.6399 15.9602 24.7228 15.9865C24.8231 16.0179 24.9201 16.0592 25.0123 16.1096C25.1217 16.1507 25.2196 16.2175 25.2979 16.3043C25.3761 16.3911 25.4324 16.4954 25.4619 16.6085C25.4961 16.7922 25.5055 16.9797 25.4896 17.1659L25.4927 17.1536Z" fill="#F5F5F5"/>
<path d="M17.5168 27.867C17.0918 27.6206 16.9994 27.9532 16.3804 28.0241C15.7614 28.0949 15.6259 27.633 15.1486 27.7161C14.6713 27.7993 14.1354 29.3452 14.7821 29.6809C15.4289 30.0165 15.629 30.0042 15.6352 30.5832C15.6413 31.1621 15.5582 34.5589 15.5582 34.5589L17.2951 33.5549C17.2951 33.5549 17.2951 30.4261 17.2951 30.0289C17.2951 29.6316 17.446 29.3452 17.5661 28.8371C17.6215 28.5168 17.7385 27.9933 17.5168 27.867Z" fill="#F5F5F5"/>
<path d="M23.608 23.9349C24.033 23.1958 23.9898 23.5746 24.7135 23.0541C25.1324 22.7462 25.1601 22.3089 25.6374 21.8223C26.1147 21.3357 26.937 22.1303 26.2903 23.2143C25.6436 24.2983 25.4957 24.9357 25.4865 25.527C25.4773 26.1183 25.5604 28.7636 25.5604 28.7636L23.8389 29.7645C23.8389 29.7645 23.8389 26.6295 23.8389 26.223C23.8504 25.8156 23.7963 25.4091 23.6788 25.0189C23.6049 24.791 23.3863 24.3167 23.608 23.9349Z" fill="#F5F5F5"/>
<path d="M20.522 16.8824C19.6259 17.3998 19.1208 17.2797 19.0038 17.5784C18.8868 17.8771 18.9576 18.105 19.0962 18.1943C19.4042 18.3853 20.1186 18.1327 20.5159 17.9572C20.9742 17.7427 21.3698 17.4139 21.6645 17.0025C21.8863 16.6299 21.874 16.1434 21.7508 16.0171C21.5044 16.0202 21.3535 16.402 20.522 16.8824Z" fill="#F5F5F5"/>
<path d="M20.522 14.8683C19.6259 15.3857 19.1208 15.2656 19.0038 15.5643C18.8868 15.863 18.9576 16.0878 19.0962 16.1802C19.4042 16.3742 20.1186 16.1186 20.5159 15.9461C20.9736 15.7305 21.3689 15.402 21.6645 14.9915C21.8863 14.6158 21.874 14.1292 21.7508 14.0029C21.5044 14.0029 21.3535 14.3879 20.522 14.8683Z" fill="#F5F5F5"/>
<path d="M20.522 12.8514C19.6259 13.3688 19.1208 13.2487 19.0038 13.5474C18.8868 13.8461 18.9576 14.074 19.0962 14.1633C19.4042 14.3543 20.1186 14.1017 20.5159 13.9262C20.9742 13.7117 21.3698 13.3829 21.6645 12.9715C21.8863 12.5989 21.874 12.1123 21.7508 11.9861C21.5044 11.9892 21.3535 12.371 20.522 12.8514Z" fill="#F5F5F5"/>
<path d="M26.3028 23.2108C26.9495 22.1298 26.1427 21.3291 25.65 21.8188C25.1572 22.3084 25.1295 22.7427 24.7261 23.0506C24.0024 23.5711 24.0455 23.1923 23.6205 23.9314C23.3988 24.3132 23.6205 24.7875 23.6914 25.0154C23.8088 25.4056 23.8629 25.8121 23.8515 26.2195C23.8515 26.2934 23.8515 26.4535 23.8515 26.666C24.1594 26.743 24.5136 26.5151 24.7754 26.2872C25.0371 26.0593 25.2742 25.8438 25.5175 25.6097V25.5204C25.5114 24.9322 25.6592 24.2917 26.3028 23.2108Z" fill="#4D4084"/>
<path opacity="0.5" d="M26.3028 23.2108C26.9495 22.1298 26.1427 21.3291 25.65 21.8188C25.1572 22.3084 25.1295 22.7427 24.7261 23.0506C24.0024 23.5711 24.0455 23.1923 23.6205 23.9314C23.3988 24.3132 23.6205 24.7875 23.6914 25.0154C23.8088 25.4056 23.8629 25.8121 23.8515 26.2195C23.8515 26.2934 23.8515 26.4535 23.8515 26.666C24.1594 26.743 24.5136 26.5151 24.7754 26.2872C25.0371 26.0593 25.2742 25.8438 25.5175 25.6097V25.5204C25.5114 24.9322 25.6592 24.2917 26.3028 23.2108Z" fill="white"/>
</g>
</g>
</g>
<defs>
<filter id="filter0_i_1614_11748" x="0" y="0" width="40" height="42" filterUnits="userSpaceOnUse" color-interpolation-filters="sRGB">
<feFlood flood-opacity="0" result="BackgroundImageFix"/>
<feBlend mode="normal" in="SourceGraphic" in2="BackgroundImageFix" result="shape"/>
<feColorMatrix in="SourceAlpha" type="matrix" values="0 0 0 0 0 0 0 0 0 0 0 0 0 0 0 0 0 0 127 0" result="hardAlpha"/>
<feOffset dy="2"/>
<feGaussianBlur stdDeviation="1"/>
<feComposite in2="hardAlpha" operator="arithmetic" k2="-1" k3="1"/>
<feColorMatrix type="matrix" values="0 0 0 0 0 0 0 0 0 0 0 0 0 0 0 0 0 0 0.25 0"/>
<feBlend mode="normal" in2="shape" result="effect1_innerShadow_1614_11748"/>
</filter>
<filter id="filter1_d_1614_11748" x="9.30786" y="4.98438" width="21.0557" height="36.9409" filterUnits="userSpaceOnUse" color-interpolation-filters="sRGB">
<feFlood flood-opacity="0" result="BackgroundImageFix"/>
<feColorMatrix in="SourceAlpha" type="matrix" values="0 0 0 0 0 0 0 0 0 0 0 0 0 0 0 0 0 0 127 0" result="hardAlpha"/>
<feOffset dy="2"/>
<feGaussianBlur stdDeviation="1"/>
<feComposite in2="hardAlpha" operator="out"/>
<feColorMatrix type="matrix" values="0 0 0 0 0 0 0 0 0 0 0 0 0 0 0 0 0 0 0.25 0"/>
<feBlend mode="normal" in2="BackgroundImageFix" result="effect1_dropShadow_1614_11748"/>
<feBlend mode="normal" in="SourceGraphic" in2="effect1_dropShadow_1614_11748" result="shape"/>
</filter>
<clipPath id="clip0_1614_11748">
<rect width="40" height="40" rx="20" fill="white"/>
</clipPath>
</defs>
</svg>
