<svg width="32" height="32" viewBox="0 0 32 32" fill="none" xmlns="http://www.w3.org/2000/svg">
<path d="M27.9688 26.8281C28.9896 27.3281 29.8333 28.0312 30.5 28.9375C31.1667 29.8438 31.5885 30.8646 31.7656 32H30.0469C29.9323 31.4062 29.7188 30.8542 29.4062 30.3438C29.0938 29.8333 28.7135 29.3958 28.2656 29.0312C27.8177 28.6667 27.3125 28.375 26.75 28.1562C26.1875 27.9375 25.6042 27.8333 25 27.8438C24.3854 27.8438 23.8021 27.9479 23.25 28.1562C22.6979 28.3646 22.1927 28.651 21.7344 29.0156C21.276 29.3802 20.8958 29.8229 20.5938 30.3438C20.2917 30.8646 20.0781 31.4167 19.9531 32H18.2344C18.401 30.875 18.8177 29.8594 19.4844 28.9531C20.151 28.0469 21 27.3385 22.0312 26.8281C21.4375 26.3594 20.9792 25.7917 20.6562 25.125C20.3333 24.4583 20.1667 23.75 20.1562 23C20.1562 22.5312 20.2188 22.0781 20.3438 21.6406C20.4688 21.2031 20.6562 20.7917 20.9062 20.4062C21.1562 20.0208 21.4531 19.6771 21.7969 19.375C22.1406 19.0729 22.526 18.8177 22.9531 18.6094C22.6719 18.2031 22.349 17.8438 21.9844 17.5312C21.6198 17.2188 21.224 16.9427 20.7969 16.7031C20.3698 16.4635 19.9219 16.2917 19.4531 16.1875C18.9844 16.0833 18.5 16.0208 18 16C17.1667 16 16.3698 16.1615 15.6094 16.4844C14.849 16.8073 14.1875 17.2812 13.625 17.9062C13.875 18.5833 14 19.2812 14 20C14 20.9583 13.7865 21.8594 13.3594 22.7031C12.9323 23.5469 12.3333 24.2552 11.5625 24.8281C12.2396 25.1719 12.849 25.5938 13.3906 26.0938C13.9323 26.5938 14.401 27.1562 14.7969 27.7812C15.1927 28.4062 15.4896 29.0729 15.6875 29.7812C15.8854 30.4896 15.9896 31.2292 16 32H14C14 31.1771 13.8438 30.401 13.5312 29.6719C13.2188 28.9427 12.7917 28.3073 12.25 27.7656C11.7083 27.224 11.0677 26.7917 10.3281 26.4688C9.58854 26.1458 8.8125 25.9896 8 26C7.16667 26 6.39062 26.1562 5.67188 26.4688C4.95312 26.7812 4.31771 27.2083 3.76562 27.75C3.21354 28.2917 2.78125 28.9323 2.46875 29.6719C2.15625 30.4115 2 31.1875 2 32H0C0 31.2396 0.104167 30.5052 0.3125 29.7969C0.520833 29.0885 0.817708 28.4219 1.20312 27.7969C1.58854 27.1719 2.05208 26.6094 2.59375 26.1094C3.13542 25.6094 3.75 25.1823 4.4375 24.8281C3.66667 24.2552 3.06771 23.5469 2.64062 22.7031C2.21354 21.8594 2 20.9583 2 20C2 19.1771 2.15625 18.401 2.46875 17.6719C2.78125 16.9427 3.20833 16.3073 3.75 15.7656C4.29167 15.224 4.92708 14.7917 5.65625 14.4688C6.38542 14.1458 7.16667 13.9896 8 14C8.88542 14 9.72396 14.1875 10.5156 14.5625C11.3073 14.9375 11.9948 15.4583 12.5781 16.125C12.849 15.8646 13.1406 15.6302 13.4531 15.4219C13.7656 15.2135 14.0938 15.0156 14.4375 14.8281C13.6667 14.2552 13.0677 13.5469 12.6406 12.7031C12.2135 11.8594 12 10.9583 12 10C12 9.17708 12.1562 8.40104 12.4688 7.67188C12.7812 6.94271 13.2083 6.30729 13.75 5.76562C14.2917 5.22396 14.9271 4.79167 15.6562 4.46875C16.3854 4.14583 17.1667 3.98958 18 4C18.8229 4 19.599 4.15625 20.3281 4.46875C21.0573 4.78125 21.6927 5.20833 22.2344 5.75C22.776 6.29167 23.2083 6.93229 23.5312 7.67188C23.8542 8.41146 24.0104 9.1875 24 10C24 10.9583 23.7865 11.8594 23.3594 12.7031C22.9323 13.5469 22.3333 14.2552 21.5625 14.8281C22.2917 15.2135 22.9479 15.6823 23.5312 16.2344C24.1146 16.7865 24.6094 17.4271 25.0156 18.1562C25.6823 18.1562 26.3073 18.2812 26.8906 18.5312C27.474 18.7812 27.9896 19.1302 28.4375 19.5781C28.8854 20.026 29.2292 20.5365 29.4688 21.1094C29.7083 21.6823 29.8333 22.3125 29.8438 23C29.8438 23.75 29.6823 24.4583 29.3594 25.125C29.0365 25.7917 28.5729 26.3594 27.9688 26.8281ZM8 24C8.55208 24 9.06771 23.8958 9.54688 23.6875C10.026 23.4792 10.4531 23.1927 10.8281 22.8281C11.2031 22.4635 11.4896 22.0417 11.6875 21.5625C11.8854 21.0833 11.9896 20.5625 12 20C12 19.4479 11.8958 18.9323 11.6875 18.4531C11.4792 17.974 11.1927 17.5469 10.8281 17.1719C10.4635 16.7969 10.0417 16.5104 9.5625 16.3125C9.08333 16.1146 8.5625 16.0104 8 16C7.44792 16 6.93229 16.1042 6.45312 16.3125C5.97396 16.5208 5.54688 16.8073 5.17188 17.1719C4.79688 17.5365 4.51042 17.9583 4.3125 18.4375C4.11458 18.9167 4.01042 19.4375 4 20C4 20.5521 4.10417 21.0677 4.3125 21.5469C4.52083 22.026 4.80729 22.4531 5.17188 22.8281C5.53646 23.2031 5.95833 23.4896 6.4375 23.6875C6.91667 23.8854 7.4375 23.9896 8 24ZM14 10C14 10.5521 14.1042 11.0677 14.3125 11.5469C14.5208 12.026 14.8073 12.4531 15.1719 12.8281C15.5365 13.2031 15.9583 13.4896 16.4375 13.6875C16.9167 13.8854 17.4375 13.9896 18 14C18.5521 14 19.0677 13.8958 19.5469 13.6875C20.026 13.4792 20.4531 13.1927 20.8281 12.8281C21.2031 12.4635 21.4896 12.0417 21.6875 11.5625C21.8854 11.0833 21.9896 10.5625 22 10C22 9.44792 21.8958 8.93229 21.6875 8.45312C21.4792 7.97396 21.1927 7.54688 20.8281 7.17188C20.4635 6.79688 20.0417 6.51042 19.5625 6.3125C19.0833 6.11458 18.5625 6.01042 18 6C17.4479 6 16.9323 6.10417 16.4531 6.3125C15.974 6.52083 15.5469 6.80729 15.1719 7.17188C14.7969 7.53646 14.5104 7.95833 14.3125 8.4375C14.1146 8.91667 14.0104 9.4375 14 10ZM25 19.8438C24.5625 19.8438 24.1562 19.9271 23.7812 20.0938C23.4062 20.2604 23.0729 20.4844 22.7812 20.7656C22.4896 21.0469 22.2604 21.3802 22.0938 21.7656C21.9271 22.151 21.8438 22.5625 21.8438 23C21.8438 23.4375 21.9271 23.8438 22.0938 24.2188C22.2604 24.5938 22.4844 24.9271 22.7656 25.2188C23.0469 25.5104 23.3802 25.7396 23.7656 25.9062C24.151 26.0729 24.5625 26.1562 25 26.1562C25.4375 26.1562 25.8438 26.0729 26.2188 25.9062C26.5938 25.7396 26.9271 25.5156 27.2188 25.2344C27.5104 24.9531 27.7396 24.6198 27.9062 24.2344C28.0729 23.849 28.1562 23.4375 28.1562 23C28.1562 22.5625 28.0729 22.1562 27.9062 21.7812C27.7396 21.4062 27.5156 21.0729 27.2344 20.7812C26.9531 20.4896 26.6198 20.2604 26.2344 20.0938C25.849 19.9271 25.4375 19.8438 25 19.8438Z" fill="#0071CE"/>
</svg>