<svg width="32" height="32" viewBox="0 0 32 32" fill="none" xmlns="http://www.w3.org/2000/svg">
<path d="M13.333 20.0001L21.333 12.0001M13.333 12.0001L21.333 20.0001M29.333 16.0001C29.333 21.0281 29.333 23.5427 27.7703 25.1041C26.2077 26.6654 23.6943 26.6667 18.6663 26.6667L14.6663 26.6667C12.049 26.6667 10.741 26.6667 9.61434 26.1041C8.48901 25.5401 7.70368 24.4934 6.13301 22.4001C3.82234 19.3187 2.66634 17.7774 2.66634 16.0001C2.66634 14.2227 3.82234 12.6814 6.13301 9.60008C7.70368 7.50675 8.48901 6.46008 9.61434 5.89608C10.741 5.33341 12.049 5.33341 14.6663 5.33341L18.6663 5.33341C23.6943 5.33341 26.209 5.33341 27.7703 6.89608C29.3317 8.45875 29.333 10.9721 29.333 16.0001Z" stroke="#0071CE" stroke-width="2" stroke-linecap="round" stroke-linejoin="round"/>
</svg>