<svg width="101" height="101" viewBox="0 0 101 101" fill="none" xmlns="http://www.w3.org/2000/svg">
<rect x="2.5" y="2.5" width="96" height="96" rx="48" fill="#AFDBFC"/>
<rect x="2.5" y="2.5" width="96" height="96" rx="48" stroke="#0071CE" stroke-width="4"/>
<path d="M40.935 46.1925V51.8978C39.5489 52.6961 38.3657 53.8013 37.4768 55.1278C36.5879 56.4544 36.0171 57.9668 35.8086 59.5481C35.6001 61.1295 35.7595 62.7374 36.2743 64.2476C36.7892 65.7578 37.6459 67.1299 38.778 68.2577C39.9101 69.3855 41.2875 70.2388 42.8035 70.7517C44.3196 71.2646 45.9337 71.4234 47.5212 71.2157C49.1086 71.008 50.6269 70.4394 51.9586 69.5539C53.2902 68.6684 54.3996 67.4897 55.201 66.109H60.9257C60.0423 68.5925 58.5418 70.8127 56.5643 72.5625C54.5868 74.3124 52.1966 75.5348 49.6167 76.1159C47.0368 76.6969 44.3512 76.6177 41.8103 75.8855C39.2694 75.1533 36.9561 73.7921 35.086 71.9287C33.216 70.0654 31.8501 67.7606 31.1157 65.2293C30.3814 62.698 30.3025 60.0227 30.8865 57.4529C31.4705 54.883 32.6983 52.5024 34.4554 50.5329C36.2125 48.5634 38.4416 47.0719 40.935 46.1925ZM51.3767 63.506C49.2998 63.506 47.3078 62.6841 45.8392 61.2211C44.3705 59.758 43.5454 57.7738 43.5454 55.7048V45.3032C43.5454 43.2342 44.3705 41.2499 45.8392 39.7869C47.3078 38.3239 49.2998 37.502 51.3767 37.502C53.4537 37.502 55.4457 38.3239 56.9143 39.7869C58.383 41.2499 59.2081 43.2342 59.2081 45.3032V58.3052H62.9514C63.7815 58.3053 64.5995 58.5026 65.3377 58.8807C66.0759 59.2588 66.7129 59.8067 67.196 60.4791L67.4283 60.8302L74.5 72.5684L70.0231 75.2468L62.9462 63.5086L51.3767 63.506ZM51.3767 24.5C53.1076 24.5 54.7675 25.1849 55.9914 26.4041C57.2153 27.6233 57.9028 29.2768 57.9028 31.001C57.9028 32.7252 57.2153 34.3787 55.9914 35.5979C54.7675 36.8171 53.1076 37.502 51.3767 37.502C49.6459 37.502 47.986 36.8171 46.7621 35.5979C45.5382 34.3787 44.8507 32.7252 44.8507 31.001C44.8507 29.2768 45.5382 27.6233 46.7621 26.4041C47.986 25.1849 49.6459 24.5 51.3767 24.5Z" fill="#0071CE"/>
</svg>
