<svg width="101" height="101" viewBox="0 0 101 101" fill="none" xmlns="http://www.w3.org/2000/svg">
<rect x="2.5" y="2.5" width="96" height="96" rx="48" fill="#AFDBFC"/>
<rect x="2.5" y="2.5" width="96" height="96" rx="48" stroke="#0071CE" stroke-width="4"/>
<path d="M44.5 80.5V65.5H38.5V44.5C38.5 42 39.375 39.875 41.125 38.125C42.875 36.375 45 35.5 47.5 35.5C50 35.5 52.125 36.375 53.875 38.125C55.625 39.875 56.5 42 56.5 44.5C58.3 45.25 59.75 46.45 60.85 48.1C61.95 49.75 62.5 51.55 62.5 53.5V65.5H53.5V80.5H44.5ZM47.5 32.5C45.85 32.5 44.438 31.913 43.264 30.739C42.09 29.565 41.502 28.152 41.5 26.5C41.498 24.848 42.086 23.436 43.264 22.264C44.442 21.092 45.854 20.504 47.5 20.5C49.146 20.496 50.559 21.084 51.739 22.264C52.919 23.444 53.506 24.856 53.5 26.5C53.494 28.144 52.907 29.557 51.739 30.739C50.571 31.921 49.158 32.508 47.5 32.5Z" fill="#0071CE"/>
</svg>
