<svg width="32" height="32" viewBox="0 0 32 32" fill="none" xmlns="http://www.w3.org/2000/svg"><path d="M16 4C22.6094 4 28 9.39062 28 16C28 22.6562 22.6094 28 16 28C9.34375 28 4 22.6562 4 16C4 9.39062 9.34375 4 16 4ZM16 10C15.1562 10 14.5 10.7031 14.5 11.5C14.5 12.3438 15.1562 13 16 13C16.7969 13 17.5 12.3438 17.5 11.5C17.5 10.7031 16.7969 10 16 10ZM17.875 22C18.4844 22 19 21.5312 19 20.875C19 20.2656 18.4844 19.75 17.875 19.75H17.125V15.625C17.125 15.0156 16.6094 14.5 16 14.5H14.5C13.8438 14.5 13.375 15.0156 13.375 15.625C13.375 16.2812 13.8438 16.75 14.5 16.75H14.875V19.75H14.125C13.4688 19.75 13 20.2656 13 20.875C13 21.5312 13.4688 22 14.125 22H17.875Z" fill="#0071CE"/></svg>