<svg width="101" height="101" viewBox="0 0 101 101" fill="none" xmlns="http://www.w3.org/2000/svg">
<rect x="2.5" y="2.5" width="96" height="96" rx="48" fill="#99C6EB"/>
<rect x="2.5" y="2.5" width="96" height="96" rx="48" stroke="#0071CE" stroke-width="4"/>
<path d="M46.2143 26.0814C46.2143 23.0116 48.7857 20.5 51.9286 20.5C55.0714 20.5 57.6429 23.0116 57.6429 26.0814C57.6429 29.1512 55.0714 31.6628 51.9286 31.6628C48.7857 31.6628 46.2143 29.1512 46.2143 26.0814ZM66.3 47.0116C61.8143 47.0395 57.9 44.5 56.0143 40.8442L53.7571 36.1837C53.2714 35.207 52.5 34.3698 51.4714 33.8116C50.6307 33.3394 49.6808 33.0839 48.7111 33.0693C47.7414 33.0546 46.7838 33.2813 45.9286 33.7279V33.7L33.3857 40.6767C31.6143 41.6535 30.5 43.4953 30.5 45.5047V52.593C30.5 54.1279 31.7857 55.3837 33.3571 55.3837C34.9286 55.3837 36.2143 54.1279 36.2143 52.593V45.5047L40.5 43.1326C39.5857 46.2023 39.0714 49.3837 39.0714 52.593V67.4674L33.3571 74.9186C32.4143 76.1465 32.6714 77.9046 33.9286 78.8256C35.1857 79.7465 36.9857 79.4953 37.9286 78.2674L43.7571 70.6767C44.4143 69.8116 44.8143 68.7512 44.9 67.6628L45.4143 59.4581L50.5 66.5465V77.7093C50.5 79.2442 51.7857 80.5 53.3571 80.5C54.9286 80.5 56.2143 79.2442 56.2143 77.7093V64.1186C56.2143 62.9744 55.8429 61.8581 55.1857 60.9093L50.6143 54.5186V54.4907C50.3 51.2535 50.8143 48.0163 51.9286 45.0023C54.2653 48.4779 57.8385 50.9836 61.9571 52.0349V52.593C61.9571 53.3744 62.5857 53.9884 63.3857 53.9884C64.1857 53.9884 64.7857 53.3744 64.7857 52.593V51.1977C64.7857 50.4163 65.4143 49.8023 66.2143 49.8023C67.0143 49.8023 67.6429 50.4163 67.6429 51.1977V79.1046C67.6429 79.886 68.2714 80.5 69.0714 80.5C69.8714 80.5 70.5 79.886 70.5 79.1046V51.1977C70.5 48.9093 68.6143 46.9837 66.3 47.0116Z" fill="#0071CE"/>
</svg>
