<svg width="101" height="101" viewBox="0 0 101 101" fill="none" xmlns="http://www.w3.org/2000/svg">
<rect x="2.5" y="2.5" width="96" height="96" rx="48" fill="#99C6EB"/>
<rect x="2.5" y="2.5" width="96" height="96" rx="48" stroke="#0071CE" stroke-width="4"/>
<path d="M53.85 29.5C55.7058 29.5 57.5422 29.8785 59.2468 30.6123C60.9514 31.3461 62.4885 32.4197 63.7641 33.7677C65.0397 35.1156 66.027 36.7095 66.6658 38.4519C67.3045 40.1944 67.5812 42.0488 67.479 43.9018C67.5225 44.2233 67.4938 44.5504 67.395 44.8594C67.1016 47.1698 66.2228 49.3669 64.842 51.2423C63.4613 53.1178 61.6243 54.6094 59.5053 55.5757L60.6225 58.9252C60.8115 58.9084 61.004 58.9 61.2 58.9C62.446 58.9 63.6641 59.2695 64.7001 59.9617C65.7361 60.654 66.5436 61.6379 67.0204 62.7891C67.4973 63.9403 67.622 65.207 67.3789 66.4291C67.1359 67.6511 66.5358 68.7737 65.6548 69.6548C64.7737 70.5358 63.6511 71.1359 62.4291 71.3789C61.207 71.622 59.9403 71.4973 58.7891 71.0204C57.6379 70.5436 56.654 69.7361 55.9617 68.7001C55.2695 67.6641 54.9 66.446 54.9 65.2L54.9105 64.8304C55.0021 63.2688 55.6713 61.7972 56.7879 60.7018L55.4565 56.7055C54.9287 56.7685 54.3932 56.8 53.85 56.8H48.2325C47.4667 56.8 46.7135 56.7419 45.9729 56.6257L44.6121 60.7018C45.3534 61.4291 45.9034 62.3284 46.2132 63.3197C46.523 64.3109 46.5829 65.3634 46.3876 66.3834C46.1924 67.4034 45.748 68.3593 45.094 69.1661C44.44 69.9728 43.5967 70.6054 42.6392 71.0075C41.6816 71.4096 40.6395 71.5687 39.6056 71.4707C38.5717 71.3728 37.5781 71.0207 36.7131 70.4459C35.8482 69.8711 35.1387 69.0914 34.6479 68.1762C34.1571 67.2609 33.9002 66.2385 33.9 65.2L33.9084 64.8304C33.9578 63.9868 34.1764 63.1618 34.5512 62.4045C34.9259 61.6471 35.4493 60.9729 36.0899 60.4219C36.7306 59.871 37.4756 59.4545 38.2806 59.1974C39.0855 58.9403 39.9339 58.8477 40.7754 58.9252L41.9514 55.393C40.1553 54.5448 38.5496 53.3414 37.2315 51.8554C35.9134 50.3695 34.9101 48.6318 34.2822 46.7473L31.338 37.9H27.6C27.0856 37.8999 26.5892 37.7111 26.2048 37.3693C25.8204 37.0275 25.5749 36.5565 25.5147 36.0457L25.5 35.8C25.5 35.243 25.7212 34.7089 26.1151 34.3151C26.5089 33.9212 27.043 33.7 27.6 33.7H32.85C33.2909 33.6999 33.7207 33.8386 34.0784 34.0964C34.4361 34.3542 34.7036 34.7181 34.8429 35.1364L37.1613 42.1H50.7V31.6C50.7 31.043 50.9212 30.5089 51.3151 30.1151C51.7089 29.7212 52.243 29.5 52.8 29.5H53.85ZM40.2 63.1C39.643 63.1 39.1089 63.3212 38.7151 63.7151C38.3212 64.1089 38.1 64.643 38.1 65.2C38.1 65.757 38.3212 66.2911 38.7151 66.6849C39.1089 67.0788 39.643 67.3 40.2 67.3C40.757 67.3 41.2911 67.0788 41.6849 66.6849C42.0787 66.2911 42.3 65.757 42.3 65.2C42.3 64.643 42.0787 64.1089 41.6849 63.7151C41.2911 63.3212 40.757 63.1 40.2 63.1ZM61.2 63.1C60.643 63.1 60.1089 63.3212 59.7151 63.7151C59.3212 64.1089 59.1 64.643 59.1 65.2C59.1 65.757 59.3212 66.2911 59.7151 66.6849C60.1089 67.0788 60.643 67.3 61.2 67.3C61.757 67.3 62.2911 67.0788 62.6849 66.6849C63.0788 66.2911 63.3 65.757 63.3 65.2C63.3 64.643 63.0788 64.1089 62.6849 63.7151C62.2911 63.3212 61.757 63.1 61.2 63.1Z" fill="#0071CE"/>
</svg>
