<svg width="101" height="101" viewBox="0 0 101 101" fill="none" xmlns="http://www.w3.org/2000/svg">
<rect x="0.5" y="0.5" width="100" height="100" rx="50" fill="#FFC107"/>
<path fill-rule="evenodd" clip-rule="evenodd" d="M50.9748 55.8054C50.1931 55.8054 49.4435 55.4949 48.8907 54.9422C48.338 54.3895 48.0275 53.6398 48.0275 52.8581V38.1215C48.0275 37.3398 48.338 36.5901 48.8907 36.0374C49.4435 35.4847 50.1931 35.1741 50.9748 35.1741C51.7565 35.1741 52.5061 35.4847 53.0589 36.0374C53.6116 36.5901 53.9221 37.3398 53.9221 38.1215V52.8581C53.9221 53.6398 53.6116 54.3895 53.0589 54.9422C52.5061 55.4949 51.7565 55.8054 50.9748 55.8054Z" fill="#FFF8E1"/>
<path d="M47.8719 62.1659C47.8719 61.3427 48.1989 60.5533 48.781 59.9713C49.363 59.3893 50.1524 59.0623 50.9755 59.0623C51.7986 59.0623 52.588 59.3893 53.17 59.9713C53.752 60.5533 54.079 61.3427 54.079 62.1659C54.079 62.989 53.752 63.7784 53.17 64.3604C52.588 64.9424 51.7986 65.2694 50.9755 65.2694C50.1524 65.2694 49.363 64.9424 48.781 64.3604C48.1989 63.7784 47.8719 62.989 47.8719 62.1659Z" fill="#FFF8E1"/>
<path fill-rule="evenodd" clip-rule="evenodd" d="M61.6057 28.8139L78.9242 60.4093C83.3806 68.541 77.5301 78.5 68.2932 78.5H33.6562C24.4193 78.5 18.5659 68.538 23.0252 60.4063L40.3437 28.811C44.9592 20.3963 56.9902 20.3963 61.6057 28.811V28.8139ZM56.2887 31.7612C53.9839 27.5495 47.9655 27.5495 45.6607 31.7612L28.3392 63.3507C26.1081 67.418 29.0348 72.3961 33.6533 72.3961H68.2903C72.9087 72.3961 75.8354 67.4151 73.6043 63.3478L56.2887 31.7612Z" fill="#FFF8E1"/>
</svg>
