<svg width="214" height="95" viewBox="0 0 214 95" fill="none" xmlns="http://www.w3.org/2000/svg">
<g clip-path="url(#clip0_887_6045)">
<path d="M12.9733 33.9426C11.6475 30.7278 10.8504 27.9351 7.6538 27.5048L5.88063 27.245C5.35194 26.5469 5.44141 25.3291 6.14905 25.0693C8.36957 25.2398 11.4604 25.3291 14.478 25.3291C16.8612 25.3291 18.6425 25.2398 21.6439 25.0693C22.2621 25.4184 22.3516 26.8148 21.7253 27.245L20.6679 27.4236C17.9268 27.8539 17.8373 28.2923 18.7239 30.8983C20.7573 36.8977 23.3357 42.9864 25.3611 47.5164C26.1582 49.2618 26.5161 50.0411 26.7763 50.2928C27.1342 50.0411 27.7524 48.8153 28.46 46.9887C29.6069 44.0336 32.6245 36.4674 33.503 34.2024C34.7393 31.1662 35.0972 29.3314 35.0972 28.8119C35.0972 28.0325 34.5685 27.6834 33.503 27.5129L31.4777 27.2532C30.949 26.6443 31.0303 25.4265 31.6485 25.0775C34.3977 25.2479 36.6101 25.3372 38.2856 25.3372C40.5062 25.3372 42.0028 25.2479 44.4836 25.0775C45.0936 25.4265 45.1912 26.7255 44.6625 27.2532L43.3367 27.4318C40.2296 27.862 39.4406 30.127 36.8704 34.998C35.634 37.3442 30.1437 49.96 28.7284 53.5239C27.8337 55.6996 26.9553 57.6967 25.8003 60.6517C25.6295 60.9115 25.2716 61.0008 24.9137 61.0008C24.4745 61.0008 24.0271 60.9034 23.7668 60.6517C23.0511 58.2244 21.7171 54.8228 20.3994 51.608L12.9652 33.9426H12.9733Z" fill="#0A2240"/>
<path d="M55.5619 34.73C62.1178 34.73 64.0618 34.3809 64.7775 33.8614C65.0378 33.6909 65.2981 33.3418 65.2981 32.2052C65.2981 29.7698 63.6225 26.7254 58.4901 26.7254C53.3577 26.7254 48.7458 31.4259 48.6564 34.2998C48.6564 34.4784 48.6564 34.73 49.2827 34.73H55.5619ZM50.0716 37.336C47.7779 37.336 47.6884 37.5065 47.6884 39.6822C47.6884 48.4661 52.9103 55.9512 62.3781 55.9512C65.2981 55.9512 67.7789 55.0825 70.52 51.6891C71.4066 51.4212 72.0166 51.9489 72.1142 52.7364C69.1942 58.6465 62.8173 60.8221 58.2136 60.8221C52.463 60.8221 47.9487 58.3948 45.3866 55.0825C42.7268 51.6891 41.6694 47.5975 41.6694 43.7738C41.6694 33.0739 48.8434 24.1113 59.458 24.1113C67.0713 24.1113 72.0247 29.2502 72.0247 34.4702C72.0247 35.6799 71.8539 36.378 71.675 36.7271C71.4147 37.2467 70.1784 37.336 66.4531 37.336H50.0716Z" fill="#0A2240"/>
<path d="M79.6541 34.6406C79.6541 31.2472 79.6541 30.8169 77.2628 29.2501L76.4657 28.7224C76.1078 28.3733 76.1078 27.4235 76.5552 27.1637C78.5886 26.4655 83.2818 24.2005 85.4861 22.9016C85.9253 22.9909 86.2018 23.1614 86.2018 23.5105V28.56C86.2018 28.9822 86.2832 29.2501 86.4621 29.3394C89.5611 26.8227 92.9203 24.1194 96.2064 24.1194C98.4107 24.1194 100.184 25.5076 100.184 27.594C100.184 30.4597 97.8006 31.5963 96.3853 31.5963C95.4906 31.5963 95.0595 31.3365 94.4332 30.9874C93.1156 30.1188 91.7816 29.5992 90.5371 29.5992C89.1219 29.5992 88.0563 30.3785 87.3487 31.3365C86.4621 32.5542 86.2018 35.0709 86.2018 38.0341V49.8705C86.2018 56.1297 86.3726 57.1688 89.74 57.4367L92.9203 57.6884C93.5466 58.1268 93.3677 59.6043 92.7495 59.8641C88.585 59.6936 86.031 59.6043 82.9239 59.6043C79.8168 59.6043 77.0757 59.6855 74.7739 59.8641C74.1557 59.6043 73.9767 58.1268 74.5949 57.6884L76.2867 57.4367C79.5565 56.9172 79.646 56.1297 79.646 49.8705V34.6406H79.6541Z" fill="#0A2240"/>
<path d="M114.304 15.0513C114.304 18.0956 112.092 19.492 109.692 19.492C106.951 19.492 105.178 17.5761 105.178 15.2218C105.178 12.356 107.39 10.6106 109.961 10.6106C112.531 10.6106 114.304 12.6077 114.304 15.0513ZM107.041 34.6407C107.041 31.2472 107.041 30.8089 104.649 29.2501L103.852 28.7225C103.494 28.3734 103.494 27.4235 103.942 27.1637C105.975 26.4656 111.018 24.2006 113.06 22.9017C113.499 22.9017 113.849 23.0721 113.938 23.4212C113.767 26.4656 113.58 30.6384 113.58 34.2104V49.8787C113.58 56.1379 113.759 57.0065 116.948 57.4449L118.802 57.6966C119.428 58.135 119.249 59.6125 118.631 59.8723C115.971 59.7018 113.401 59.6125 110.302 59.6125C107.203 59.6125 104.462 59.6937 101.981 59.8723C101.363 59.6125 101.192 58.135 101.811 57.6966L103.673 57.4449C106.951 57.0065 107.041 56.1379 107.041 49.8787V34.6488V34.6407Z" fill="#0A2240"/>
<path d="M143.171 25.6782C143.968 27.5859 144.586 30.3705 144.586 32.7248C144.228 33.3418 142.902 33.5123 142.455 32.9927C140.959 29.1609 138.299 26.6361 134.671 26.6361C131.043 26.6361 129.002 28.8118 129.002 31.9455C129.002 35.5094 132.719 37.4334 135.818 39.1626C140.503 41.7686 144.838 44.7236 144.838 50.9097C144.838 57.518 138.649 60.8221 132.101 60.8221C127.936 60.8221 124.845 59.9535 122.625 58.2162C121.917 56.5601 121.389 52.298 121.568 49.4241C122.007 48.9045 123.162 48.8152 123.609 49.3348C125.106 54.1246 127.944 58.2974 132.987 58.2974C136.184 58.2974 138.925 56.4789 138.925 52.7364C138.925 48.734 135.387 46.5583 132.109 44.7236C126.977 41.8579 123.341 38.8054 123.341 34.0237C123.341 27.6752 128.66 24.1113 135.379 24.1113C139.096 24.1113 142.374 24.98 143.171 25.6782Z" fill="#0A2240"/>
<path d="M209.299 17.2026H192.519V43.4896C192.519 47.6786 189.094 51.0558 184.832 51.0558C180.57 51.0558 177.138 47.6786 177.138 43.4896V17.2026H160.358C156.014 17.2026 154.387 20.1414 156.73 23.7297L180.554 60.1239C182.905 63.7203 186.752 63.7203 189.102 60.1239L212.926 23.7297C215.277 20.1414 213.642 17.2026 209.299 17.2026Z" fill="#80BC00"/>
<path d="M184.824 15.1162C189.086 15.1162 192.511 11.7471 192.511 7.55811C192.511 3.36908 189.086 0 184.824 0C180.562 0 177.13 3.45838 177.13 7.55811C177.13 11.6578 180.562 15.1162 184.824 15.1162Z" fill="#0A2240"/>
<path d="M0 79.1046C0 78.0411 0.854048 77.1968 1.94398 77.1968C3.0339 77.1968 3.88795 78.0411 3.88795 79.1046V91.2333H11.0864C12.0705 91.2333 12.8514 92.0045 12.8514 92.9706C12.8514 93.9367 12.0705 94.7079 11.0864 94.7079H1.94398C0.862182 94.7079 0 93.8636 0 92.8001V79.1127V79.1046Z" fill="#0A2240"/>
<path d="M14.6409 92.248L20.7982 78.5849C21.2293 77.6432 22.0101 77.075 23.0675 77.075H23.2953C24.3527 77.075 25.1091 77.6432 25.5402 78.5849L31.6975 92.248C31.8276 92.524 31.9008 92.7676 31.9008 93.0192C31.9008 94.034 31.0956 94.854 30.0544 94.854C29.1435 94.854 28.5416 94.3344 28.1837 93.5388L26.9961 90.8111H19.2202L17.9839 93.6606C17.6585 94.4075 16.9997 94.854 16.1945 94.854C15.1859 94.854 14.405 94.0584 14.405 93.0679C14.405 92.7919 14.5026 92.524 14.6328 92.248H14.6409ZM25.5727 87.4339L23.1245 81.7024L20.6762 87.4339H25.5727Z" fill="#0A2240"/>
<path d="M34.959 79.2506C34.959 78.1871 35.813 77.3428 36.903 77.3428H43.166C45.1832 77.3428 46.7774 77.8867 47.786 78.8771C48.5912 79.6727 48.9979 80.6388 48.9979 81.8241V81.8728C48.9979 83.8293 47.9405 84.9252 46.6716 85.6153C48.7132 86.3865 49.9821 87.5474 49.9821 89.8774V89.9261C49.9821 93.1003 47.3549 94.6915 43.3693 94.6915H36.903C35.8212 94.6915 34.959 93.8472 34.959 92.7837V79.2425V79.2506ZM42.3282 84.357C44.0444 84.357 45.1262 83.813 45.1262 82.5222V82.4735C45.1262 81.3288 44.2152 80.6875 42.5803 80.6875H38.7412V84.357H42.3282ZM43.3612 91.3549C45.0774 91.3549 46.1104 90.7623 46.1104 89.4715V89.4228C46.1104 88.2537 45.2238 87.5393 43.231 87.5393H38.7412V91.3549H43.3612Z" fill="#0A2240"/>
<path d="M52.3979 86.07V86.0213C52.3979 81.0854 56.3591 77.0425 61.8169 77.0425C67.2747 77.0425 71.1789 81.0367 71.1789 85.9726V86.0213C71.1789 90.9572 67.2177 95.0001 61.7599 95.0001C56.3022 95.0001 52.3979 91.0059 52.3979 86.07ZM67.1201 86.07V86.0213C67.1201 83.0419 64.8996 80.5658 61.7681 80.5658C58.6366 80.5658 56.4648 82.9932 56.4648 85.9726V86.0213C56.4648 89.0007 58.6854 91.4768 61.8169 91.4768C64.9484 91.4768 67.1201 89.0494 67.1201 86.07Z" fill="#0A2240"/>
<path d="M74.6356 79.2506C74.6356 78.1871 75.4896 77.3428 76.5796 77.3428H82.7124C84.9574 77.3428 86.698 77.9598 87.8611 79.1044C88.8453 80.0705 89.374 81.4344 89.374 83.0743V83.123C89.374 85.8507 87.9831 87.5393 85.8439 88.408L88.5444 91.6309C88.9266 92.1018 89.1788 92.4996 89.1788 93.0922C89.1788 94.1557 88.2678 94.8539 87.3324 94.8539C86.4458 94.8539 85.8683 94.4317 85.4128 93.8635L81.6225 89.1549H78.5154V92.9461C78.5154 94.0096 77.6532 94.8539 76.5714 94.8539C75.4896 94.8539 74.6274 94.0096 74.6274 92.9461V79.2587L74.6356 79.2506ZM82.4603 85.7695C84.3555 85.7695 85.4372 84.7791 85.4372 83.3178V83.2691C85.4372 81.6292 84.2741 80.793 82.3789 80.793H78.5154V85.7777H82.4521L82.4603 85.7695Z" fill="#0A2240"/>
<path d="M91.9036 92.248L98.0609 78.5849C98.492 77.6432 99.2728 77.075 100.33 77.075H100.558C101.615 77.075 102.372 77.6432 102.803 78.5849L108.96 92.248C109.09 92.524 109.164 92.7676 109.164 93.0192C109.164 94.034 108.358 94.854 107.317 94.854C106.406 94.854 105.804 94.3344 105.446 93.5388L104.259 90.8111H96.4829L95.2466 93.6606C94.9212 94.4075 94.2624 94.854 93.4572 94.854C92.4486 94.854 91.6677 94.0584 91.6677 93.0679C91.6677 92.7919 91.7653 92.524 91.8955 92.248H91.9036ZM102.835 87.4339L100.387 81.7024L97.9389 87.4339H102.835Z" fill="#0A2240"/>
<path d="M117.476 80.8661H113.743C112.759 80.8661 111.953 80.0705 111.953 79.1044C111.953 78.1384 112.759 77.3428 113.743 77.3428H125.106C126.09 77.3428 126.895 78.1384 126.895 79.1044C126.895 80.0705 126.09 80.8661 125.106 80.8661H121.372V92.9461C121.372 94.0096 120.518 94.8539 119.428 94.8539C118.338 94.8539 117.484 94.0096 117.484 92.9461V80.8661H117.476Z" fill="#0A2240"/>
<path d="M128.677 86.07V86.0213C128.677 81.0854 132.638 77.0425 138.095 77.0425C143.553 77.0425 147.457 81.0367 147.457 85.9726V86.0213C147.457 90.9572 143.496 95.0001 138.039 95.0001C132.581 95.0001 128.677 91.0059 128.677 86.07ZM143.399 86.07V86.0213C143.399 83.0419 141.178 80.5658 138.047 80.5658C134.915 80.5658 132.743 82.9932 132.743 85.9726V86.0213C132.743 89.0007 134.964 91.4768 138.095 91.4768C141.227 91.4768 143.399 89.0494 143.399 86.07Z" fill="#0A2240"/>
<path d="M150.914 79.2506C150.914 78.1871 151.768 77.3428 152.858 77.3428H158.991C161.236 77.3428 162.977 77.9598 164.14 79.1044C165.124 80.0705 165.653 81.4344 165.653 83.0743V83.123C165.653 85.8507 164.262 87.5393 162.114 88.408L164.815 91.6309C165.197 92.1018 165.449 92.4996 165.449 93.0922C165.449 94.1557 164.538 94.8539 163.603 94.8539C162.716 94.8539 162.139 94.4317 161.683 93.8635L157.893 89.1549H154.786V92.9461C154.786 94.0096 153.924 94.8539 152.842 94.8539C151.76 94.8539 150.898 94.0096 150.898 92.9461V79.2587L150.914 79.2506ZM158.747 85.7695C160.642 85.7695 161.724 84.7791 161.724 83.3178V83.2691C161.724 81.6292 160.561 80.793 158.666 80.793H154.802V85.7777H158.739L158.747 85.7695Z" fill="#0A2240"/>
<path d="M169.345 79.1046C169.345 78.0411 170.208 77.1968 171.289 77.1968C172.371 77.1968 173.233 78.0411 173.233 79.1046V92.9462C173.233 94.0097 172.379 94.854 171.289 94.854C170.2 94.854 169.345 94.0097 169.345 92.9462V79.1046Z" fill="#0A2240"/>
<path d="M176.869 86.07V86.0213C176.869 81.0854 180.83 77.0425 186.288 77.0425C191.746 77.0425 195.65 81.0367 195.65 85.9726V86.0213C195.65 90.9572 191.689 95.0001 186.231 95.0001C180.773 95.0001 176.869 91.0059 176.869 86.07ZM191.583 86.07V86.0213C191.583 83.0419 189.363 80.5658 186.231 80.5658C183.1 80.5658 180.928 82.9932 180.928 85.9726V86.0213C180.928 89.0007 183.148 91.4768 186.28 91.4768C189.411 91.4768 191.583 89.0494 191.583 86.07Z" fill="#0A2240"/>
<path d="M200.644 92.8649C200.213 92.5646 199.912 92.0206 199.912 91.428C199.912 90.4376 200.718 89.6663 201.726 89.6663C202.23 89.6663 202.588 89.8368 202.841 90.0154C204.174 90.9815 205.639 91.5741 207.363 91.5741C208.957 91.5741 209.909 90.9571 209.909 89.9342V89.8855C209.909 88.9194 209.307 88.4242 206.346 87.6774C202.784 86.7843 200.49 85.8183 200.49 82.368V82.3193C200.49 79.1694 203.068 77.083 206.672 77.083C208.819 77.083 210.69 77.6269 212.276 78.6174C212.707 78.869 213.13 79.3886 213.13 80.1274C213.13 81.1178 212.325 81.889 211.316 81.889C210.934 81.889 210.633 81.7916 210.332 81.613C209.047 80.8661 207.835 80.444 206.623 80.444C205.134 80.444 204.353 81.1097 204.353 81.954V82.0027C204.353 83.1474 205.11 83.5127 208.168 84.2839C211.755 85.2013 213.772 86.4677 213.772 89.4958V89.5446C213.772 92.9948 211.096 94.927 207.282 94.927C204.955 94.927 202.613 94.2288 200.644 92.8406V92.8649Z" fill="#0A2240"/>
</g>
<defs>
<clipPath id="clip0_887_6045">
<rect width="214" height="95" fill="white"/>
</clipPath>
</defs>
</svg>
